<svg width="140" height="707" viewBox="0 0 140 707" fill="none" xmlns="http://www.w3.org/2000/svg">
<path d="M3.59676 108.903C2.72538 94.0131 15.0546 81.2884 31.1348 80.4815C47.2151 79.6746 60.9571 91.0911 61.8285 105.981C62.6999 120.871 50.3706 133.596 34.2904 134.402C18.2101 135.209 4.46814 123.793 3.59676 108.903Z" fill="white" fill-opacity="0.3"/>
<path d="M34.739 20.3951C34.1712 10.6928 42.205 2.40142 52.6829 1.87566C63.1608 1.3499 72.1151 8.7889 72.6829 18.4911C73.2507 28.1934 65.2169 36.4848 54.739 37.0106C44.2611 37.5363 35.3068 30.0973 34.739 20.3951Z" fill="white" fill-opacity="0.3"/>
<path d="M16.5205 391.925C14.5845 358.844 39.8443 330.681 72.9398 329.02C106.035 327.36 134.434 352.831 136.37 385.911C138.306 418.992 113.046 447.155 79.9504 448.815C46.8549 450.476 18.4564 425.005 16.5205 391.925Z" fill="white" fill-opacity="0.3"/>
<path d="M15.2348 544.756C14.0088 523.805 30.0066 505.969 50.9671 504.917C71.9275 503.865 89.9133 519.997 91.1393 540.948C92.3654 561.899 76.3676 579.735 55.4071 580.787C34.4467 581.839 16.4609 565.707 15.2348 544.756Z" fill="white" fill-opacity="0.4"/>
<path d="M-21.315 672.349C-22.412 653.603 -8.09812 637.644 10.656 636.703C29.4101 635.762 45.5026 650.195 46.5996 668.941C47.6966 687.686 33.3828 703.646 14.6287 704.587C-4.12543 705.528 -20.2179 691.094 -21.315 672.349Z" fill="white" fill-opacity="0.4"/>
<path d="M-0.00169715 234.377C-1.70508 205.27 22.3961 180.396 53.8298 178.818C85.2635 177.241 112.126 199.558 113.83 228.665C115.533 257.772 91.432 282.646 59.9983 284.223C28.5646 285.8 1.70168 263.483 -0.00169715 234.377Z" fill="white" fill-opacity="0.2"/>
</svg>
