<svg width="93" height="416" viewBox="0 0 93 416" fill="none" xmlns="http://www.w3.org/2000/svg">
<path d="M3.19975 179.051C1.97337 158.095 19.3254 140.187 41.9566 139.051C64.5877 137.916 83.9281 153.983 85.1545 174.939C86.3808 195.895 69.0288 213.803 46.3976 214.939C23.7665 216.075 4.42612 200.007 3.19975 179.051Z" fill="white" fill-opacity="0.2"/>
<path d="M22.7903 300.051C21.79 282.959 34.8409 268.408 51.9402 267.55C69.0395 266.692 83.7121 279.852 84.7124 296.944C85.7126 314.035 72.6617 328.586 55.5624 329.444C38.4631 330.302 23.7905 317.142 22.7903 300.051Z" fill="white" fill-opacity="0.3"/>
<path d="M43.2934 393.133C42.5836 381.004 51.8455 370.677 63.9805 370.068C76.1155 369.459 86.5283 378.799 87.2382 390.928C87.948 403.058 78.6861 413.384 66.5511 413.993C54.4161 414.602 44.0033 405.263 43.2934 393.133Z" fill="white" fill-opacity="0.3"/>
<path d="M11.8007 52.725C10.252 26.2606 30.4598 3.73002 56.9362 2.40149C83.4125 1.07296 106.131 21.4496 107.68 47.914C109.229 74.3784 89.0211 96.909 62.5447 98.2375C36.0683 99.5661 13.3495 79.1894 11.8007 52.725Z" fill="white" fill-opacity="0.4"/>
</svg>
