<svg width="101" height="83" viewBox="0 0 101 83" fill="none" xmlns="http://www.w3.org/2000/svg">
<path fill-rule="evenodd" clip-rule="evenodd" d="M99.8308 41.6609C100.582 39.3585 100.809 36.6996 99.5133 34.3637C98.1647 31.9329 95.6639 30.7244 92.8745 30.3395C89.0634 29.8136 85.6939 30.8864 83.4191 33.3488C81.2001 35.7507 80.3856 39.0812 80.7761 42.4171C80.978 44.1419 82.5375 45.3872 84.2593 45.1986C84.3912 45.1842 84.5201 45.1617 84.6457 45.1319C86.0208 46.3674 87.7315 47.1715 89.3909 47.507C93.2695 48.2912 98.1533 46.8053 99.8308 41.6609ZM88.0953 38.7291C88.1124 38.3752 88.0703 38.0316 87.9776 37.7081C87.9996 37.6828 88.0217 37.658 88.0441 37.6338C88.7307 36.8906 89.956 36.2728 92.0648 36.5638C93.6829 36.787 93.9851 37.2998 94.0301 37.381C94.1278 37.5571 94.3398 38.2009 93.861 39.6695C93.4087 41.0565 92.1964 41.6738 90.5879 41.3485C88.8767 41.0025 88.04 39.87 88.0953 38.7291ZM61.8404 19.1308C62.945 21.5859 63.3614 24.7283 62.7175 27.1216C62.0235 29.7011 60.4092 31.5068 58.3143 32.3879C56.3304 33.2223 54.1864 33.1185 52.4296 32.5072C51.0101 32.0133 49.5289 31.0704 48.5653 29.6311C47.5004 29.202 46.7049 28.2051 46.5907 26.9853C46.3992 24.9396 46.6251 22.1949 47.5687 19.7737C48.5025 17.3777 50.4758 14.5737 54.1416 14.1174C58.2854 13.6016 60.7606 16.7306 61.8404 19.1308ZM53.5905 21.6974C53.6195 21.7209 53.6483 21.745 53.6767 21.7696C54.9921 22.9102 55.1428 24.8947 54.0135 26.2023C53.9803 26.2407 53.9522 26.2756 53.9285 26.3068C54.0324 26.3861 54.1978 26.4865 54.4497 26.5741C54.9874 26.7611 55.5077 26.7338 55.8438 26.5924C56.069 26.4977 56.4307 26.2754 56.6544 25.4439C56.8458 24.7325 56.7586 23.0943 56.1193 21.6733C55.8204 21.0089 55.5029 20.6309 55.286 20.4604C55.1357 20.3423 55.0747 20.339 54.9643 20.3527C54.605 20.3975 54.0865 20.6401 53.5905 21.6974ZM71.571 55.8078C71.3162 55.9142 70.9864 56.0488 70.734 56.1273C69.9286 56.3776 69.1167 56.6355 68.2976 56.8958L68.2974 56.8959C64.257 58.1798 60.04 59.5197 55.5514 60.2701C53.3223 60.6428 51.2083 60.5384 49.3953 59.6576C47.4933 58.7335 46.3498 57.1646 45.7544 55.4793C44.6759 52.4264 45.2681 48.6456 45.9573 45.7754C46.0215 45.508 46.098 45.2226 46.1791 44.92L46.1791 44.9197C46.3073 44.4414 46.447 43.9202 46.5678 43.3595C46.017 43.7437 45.528 44.1413 45.2257 44.4035C43.377 46.0066 41.4777 47.5339 39.6308 49.0191L39 49.5265C36.9379 51.1864 34.9433 52.8085 33.0372 54.5249C32.9663 54.5888 32.8487 54.7001 32.6938 54.8467L32.693 54.8475L32.693 54.8475L32.693 54.8475C32.0531 55.4534 30.7792 56.6598 29.5396 57.6023C28.76 58.195 27.7742 58.8618 26.7328 59.2759C25.8439 59.6294 23.8901 60.1977 22.0984 58.9167C20.1949 57.5556 19.1456 55.5611 18.4791 53.9764C18.1343 53.1567 17.8461 52.3292 17.6015 51.6204L17.5569 51.4911C17.32 50.8044 17.13 50.2537 16.9314 49.7692C14.7853 44.5337 12.7332 39.0974 10.8534 33.7832C10.7874 33.5965 10.6889 33.2956 10.5623 32.909L10.4427 32.544L10.4336 32.6033C10.286 33.5568 10.0969 34.6845 9.78608 35.6161C8.28367 40.1198 7.35899 45.8253 7.40772 50.5483C7.41049 50.8172 7.44258 51.1887 7.49873 51.7758L7.50638 51.8556C7.55614 52.3749 7.61812 53.0216 7.64494 53.6733C7.66921 54.263 7.6841 55.1011 7.53735 56.0044C14.0031 59.0885 20.5589 61.9913 27.1639 64.9158L27.1646 64.9161L27.1648 64.9162L27.1851 64.9252L28.3799 65.4543L29.0397 65.7466C36.9229 69.2395 44.8612 72.7866 52.6636 76.6895C52.6796 75.8548 53.026 75.0308 53.6925 74.4306C59.9493 68.7967 66.7537 62.5543 71.571 55.8078ZM1.31166 55.0945C0.912229 55.7025 0.752542 56.4043 0.812899 57.0849C0.536624 58.4599 1.21471 59.9062 2.53906 60.5495C9.85191 64.1015 17.2777 67.3894 24.6457 70.6517C25.2762 70.9309 25.9063 71.2098 26.5358 71.4888C34.5427 75.0364 42.474 78.5824 50.238 82.4788C51.7925 83.259 53.6749 82.6351 54.4423 81.0853C54.6577 80.6502 54.7624 80.1883 54.7671 79.7318C55.8176 80.1061 57.0301 79.9101 57.9117 79.1162C65.384 72.3878 74.6804 63.927 79.9375 54.3509C80.3096 53.6731 80.782 52.6343 80.7173 51.4442C80.6807 50.7689 80.4675 50.0188 79.9581 49.3457C79.4583 48.6853 78.8275 48.3023 78.2814 48.0894C77.3023 47.7077 76.3287 47.7651 75.7653 47.8287C75.1133 47.9024 74.4532 48.0581 73.864 48.2254C72.6801 48.5615 71.4338 49.0467 70.4864 49.4343C70.1172 49.5853 69.7716 49.7306 69.4883 49.8497L69.2537 49.9482C69.051 50.0331 68.9313 50.0817 68.8694 50.1068C68.8093 50.1311 68.8037 50.1334 68.8297 50.1253C67.9468 50.3997 67.0833 50.6736 66.2334 50.9431L66.2312 50.9438C62.2021 52.2218 58.4811 53.402 54.4701 54.0725C52.9867 54.3205 52.3232 54.1171 52.1013 54.0092C51.9683 53.9446 51.8192 53.8438 51.6716 53.426C51.2641 52.2725 51.3841 50.113 52.0623 47.2886C52.0792 47.2182 52.1129 47.0928 52.1582 46.9246L52.1583 46.9244C52.3488 46.2171 52.743 44.7534 52.9452 43.4358C53.0743 42.5939 53.1745 41.5526 53.0618 40.5394C52.96 39.624 52.6009 37.9942 51.1131 36.9304C49.7208 35.9349 48.1903 35.9899 47.2004 36.1842C46.1895 36.3827 45.2545 36.8119 44.5234 37.2125C43.0417 38.0245 41.7104 39.1059 41.0933 39.6411C39.3373 41.1639 37.5301 42.6173 35.6707 44.1126L35.6707 44.1127L35.6706 44.1127L35.6705 44.1128L35.6702 44.113L35.0422 44.6183C32.9799 46.2783 30.865 47.996 28.818 49.8393C28.6153 50.0218 28.3877 50.2368 28.138 50.4725C27.4701 51.1033 26.6446 51.8829 25.7171 52.5882C25.4616 52.7825 25.2345 52.9417 25.0376 53.0693C24.7908 52.7055 24.533 52.22 24.2625 51.577C24.0085 50.973 23.7813 50.3274 23.5339 49.6105L23.4749 49.4393C23.2552 48.8017 23.0076 48.0833 22.7371 47.4233C20.6358 42.2971 18.6203 36.9589 16.7698 31.7275L16.7686 31.7241L16.765 31.7135L16.7524 31.6763C16.7417 31.6446 16.7282 31.6042 16.7116 31.5539C16.6782 31.4527 16.6364 31.3252 16.5853 31.1691C16.484 30.8601 16.3516 30.456 16.1976 29.995C15.8908 29.0763 15.4924 27.9128 15.0701 26.7829C14.6588 25.6827 14.1827 24.4995 13.7154 23.5956C13.5023 23.1834 13.1785 22.6035 12.7465 22.1177C12.5488 21.8954 12.1036 21.4305 11.4044 21.1315C10.5226 20.7542 9.27742 20.6865 8.18252 21.4599C6.86719 22.3891 6.13243 23.747 5.69057 24.8575C5.2327 26.0083 4.9453 27.2679 4.73737 28.3914C4.58595 29.2095 4.45765 30.0705 4.34507 30.8261L4.34507 30.8261L4.34504 30.8263L4.34499 30.8267C4.3045 31.0985 4.26604 31.3566 4.22926 31.5942C4.07391 32.5979 3.94979 33.224 3.82952 33.5845C2.11557 38.7224 1.07376 45.1188 1.12993 50.5641C1.13589 51.1416 1.19725 51.7828 1.24628 52.2952L1.25114 52.3461L1.25118 52.3465C1.30512 52.9105 1.35251 53.4061 1.37214 53.8829C1.39211 54.3683 1.37672 54.7166 1.33952 54.9546C1.32916 55.021 1.31895 55.0665 1.31166 55.0945ZM76.6235 54.0655C76.6229 54.0662 76.6091 54.0671 76.5838 54.0663C76.6114 54.0645 76.6241 54.0649 76.6235 54.0655ZM74.5108 51.1311C74.5179 51.1094 74.5228 51.098 74.5235 51.0977C74.5237 51.0976 74.5236 51.0986 74.5229 51.1005L74.5204 51.1078C74.5183 51.1133 74.5152 51.121 74.5108 51.1311ZM24.2653 53.4711C24.2662 53.4696 24.2859 53.4625 24.3217 53.4545C24.2823 53.4686 24.2644 53.4726 24.2653 53.4711ZM46.8175 41.1486C46.8105 41.1218 46.8083 41.1066 46.809 41.1056C46.8093 41.1052 46.81 41.1073 46.8111 41.1119C46.8127 41.1186 46.8149 41.1306 46.8175 41.1486ZM19.7129 15.257C21.1808 13.9352 21.3333 12.1632 21.1815 10.9568C21.0323 9.77153 20.5574 8.65504 20.0908 7.78051C19.1835 6.08016 17.7579 4.29851 16.5627 3.41324C12.9463 0.734613 8.68441 0.147166 4.87759 0.474548C3.1515 0.622991 1.88339 2.14473 2.04519 3.87344C2.11188 4.58596 2.41107 5.22242 2.86064 5.7141L2.84456 5.72848C1.56077 6.88446 1.46455 8.87049 2.62964 10.1644C4.00617 11.6931 6.51126 14.0214 9.3232 15.5412C11.9292 16.9498 16.2517 18.3736 19.7129 15.257ZM12.273 10.0179C10.6869 9.16064 9.10961 7.83577 7.99163 6.72472C9.82383 6.88435 11.4769 7.43384 12.8535 8.45349L12.8539 8.45377C12.8597 8.45845 12.9355 8.51889 13.0758 8.66213C13.2142 8.80343 13.3801 8.98922 13.5597 9.21209C13.9243 9.66464 14.2853 10.1957 14.5579 10.7064C14.5805 10.7488 14.6018 10.7899 14.6221 10.8297C14.1225 10.8132 13.3794 10.616 12.273 10.0179Z" fill="black"/>
</svg>
