<svg width="1361" height="360" viewBox="0 0 1361 360" fill="none" xmlns="http://www.w3.org/2000/svg">
<g opacity="0.2">
<path d="M767.755 125.569C767.023 127.791 760.501 125.098 759 124.604C753.157 122.68 746.148 119.18 743.823 112.99C742.531 109.552 742.906 104.069 747.588 104.096C751.883 104.12 756.396 106.593 760.189 108.35" stroke="white" stroke-width="7" stroke-linecap="round"/>
<path d="M762.383 106.542C760.738 109.97 760.388 103.693 760.367 102.58C760.313 99.7201 761.08 96.4212 762.402 93.9097C763.19 92.4122 764.671 90.0608 766.683 90.2982C768.164 90.4729 769.448 92.4787 770.236 93.5481C772.016 95.9621 773.934 98.7839 774.884 101.656C777.46 109.451 775.418 117.041 771.748 124.067" stroke="white" stroke-width="7" stroke-linecap="round"/>
<path d="M801.228 88.3079C802.522 88.6069 800.111 87.398 799.801 87.2456C797.139 85.9374 794.803 84.5491 792.435 82.7276C787.886 79.2271 781.449 74.0062 781.362 67.6359C781.282 61.825 788.287 63.7425 791.522 65.3088C794.825 66.9085 797.562 68.9147 800.271 71.3047" stroke="white" stroke-width="7" stroke-linecap="round"/>
<path d="M799.214 69.4898C796.756 67.3211 798.678 61.7421 799.799 59.305C800.172 58.4937 801.218 56.6427 802.264 56.4933C803.952 56.2522 805.238 57.5321 806.005 58.8533C807.262 61.0174 807.609 63.7206 808.089 66.138C808.673 69.0848 808.884 72.2265 808.877 75.2251C808.866 80.8698 806.534 85.3953 803.209 89.8624" stroke="white" stroke-width="7" stroke-linecap="round"/>
<path d="M803.891 133.141C809.455 136.883 816.493 138.939 822.059 133.637C827.448 128.504 825.989 123.196 822.681 117.498" stroke="white" stroke-width="7" stroke-linecap="round"/>
<path d="M702.59 86.6141C690.522 103.234 682.638 122.036 686.143 142.912C689.352 162.025 703.837 178.087 720.551 186.649C764.211 209.014 819.823 182.743 839.496 140.299C849.107 119.563 850.921 97.7463 841.08 76.5914C831.95 56.9621 810.739 42.9082 789.469 40.0586C777.599 38.4684 765.795 38.3456 754.373 42.3199C739.879 47.3635 726.877 56.2201 715.542 66.4569C706.653 74.4839 698.583 84.5741 692.704 95.0052C686.768 105.538 683.46 115.488 680.773 127.118" stroke="white" stroke-width="7" stroke-linecap="round"/>
<path d="M1128.74 79.7078C1116.67 96.3277 1108.79 115.13 1112.29 136.005C1115.5 155.119 1129.99 171.181 1146.7 179.743C1190.36 202.108 1245.97 175.837 1265.64 133.393C1275.26 112.657 1277.07 90.8401 1267.23 69.6852C1258.1 50.0559 1236.89 36.002 1215.62 33.1524C1203.75 31.5621 1191.94 31.4394 1180.52 35.4137C1166.03 40.4572 1153.03 49.3138 1141.69 59.5507C1132.8 67.5777 1124.73 77.6679 1118.85 88.0989C1112.92 98.6319 1109.61 108.582 1106.92 120.212" stroke="white" stroke-width="7" stroke-linecap="round"/>
<path d="M766.438 194.102C784.254 189.931 803.474 189.665 821.723 188.86C851.538 187.544 881.274 184.907 911.015 182.474" stroke="white" stroke-width="7" stroke-linecap="round"/>
<path d="M1190.2 187.156C1172.27 183.542 1153.05 183.875 1134.78 183.637C1104.94 183.25 1075.14 181.539 1045.33 180.032" stroke="white" stroke-width="7" stroke-linecap="round"/>
<path d="M912.242 183.053C909.362 191.574 915.267 163.991 921.815 157.826C925.274 154.57 927.356 154.248 929.19 159.107C931.179 164.375 932.963 169.893 934.107 175.415" stroke="white" stroke-width="7" stroke-linecap="round"/>
<path d="M1044.12 180.654C1047.26 189.081 1040.5 161.695 1033.76 155.737C1030.2 152.59 1028.11 152.333 1026.43 157.247C1024.61 162.575 1023 168.144 1022.02 173.7" stroke="white" stroke-width="7" stroke-linecap="round"/>
<path d="M934.668 178.129C933.132 174.513 953.786 168.88 957.272 177.087C961.569 187.202 946.694 190.704 940.183 191.111" stroke="white" stroke-width="7" stroke-linecap="round"/>
<path d="M1021.55 176.43C1022.97 172.768 1002.15 167.781 998.925 176.092C994.945 186.336 1009.92 189.374 1016.44 189.578" stroke="white" stroke-width="7" stroke-linecap="round"/>
<path d="M938.79 193.939C936.839 195.072 943.436 193.396 945.555 194.17C950.636 196.025 954.836 197.383 954.457 203.5C953.837 213.499 940.911 217.419 932.958 213.51" stroke="white" stroke-width="7" stroke-linecap="round"/>
<path d="M1017.92 192.359C1019.91 193.43 1013.26 191.96 1011.17 192.8C1006.15 194.812 1001.99 196.3 1002.56 202.402C1003.49 212.377 1016.53 215.893 1024.36 211.739" stroke="white" stroke-width="7" stroke-linecap="round"/>
<path d="M932.992 216.354C931.829 217.238 932.608 219.813 932.513 221.059C932.323 223.547 931.24 227.84 929.337 229.666C923.222 235.532 915.946 232.243 912.203 225.797" stroke="white" stroke-width="7" stroke-linecap="round"/>
<path d="M1024.41 214.583C1025.6 215.431 1024.9 218.029 1025.04 219.271C1025.3 221.753 1026.52 226.01 1028.48 227.775C1034.77 233.448 1041.94 229.935 1045.48 223.375" stroke="white" stroke-width="7" stroke-linecap="round"/>
<path d="M849.04 105.351C866.582 94.0168 880.942 77.3824 896.53 63.5874C908.515 52.9804 920.328 42.1952 932.418 31.7132" stroke="white" stroke-width="7" stroke-linecap="round"/>
<path d="M931.669 34.5098C930.403 32.3295 929.111 31.1736 928.227 28.5813C926.931 24.7805 926.105 18.0013 927.714 14.1199C930.148 8.24565 936.738 5.70422 942.716 7.59895C947.178 9.01297 949.293 13.1029 950.745 17.1273" stroke="white" stroke-width="7" stroke-linecap="round"/>
<path d="M951.868 20.4177C948.544 19.323 956.481 13.435 957.686 12.485C963.213 8.12437 968.988 4.90509 976.062 4.00525C987.349 2.56938 979.239 17.3384 975.717 20.7605" stroke="white" stroke-width="7" stroke-linecap="round"/>
<path d="M976.005 25.3268C979.351 23.3839 990.08 20.1238 990.322 27.6568C990.562 35.1267 982.711 38.5401 976.613 39.952" stroke="white" stroke-width="7" stroke-linecap="round"/>
<path d="M971.996 44.2128C970.854 42.7117 971.698 46.4582 971.789 46.8733C972.543 50.3254 974.374 53.4285 974.292 57.0693C974.122 64.6615 965.277 67.6678 959.538 64.8475" stroke="white" stroke-width="7" stroke-linecap="round"/>
<path d="M1102.16 62.1404C1096.4 69.2506 1088.62 70.6264 1083.93 61.7651C1081.01 56.2767 1095.17 52.7829 1097.86 51.7691" stroke="white" stroke-width="7" stroke-linecap="round"/>
<path d="M1097.59 52.7829C1087.25 50.0411 1094.05 35.0976 1100.43 31.3989C1105.28 28.5795 1108.87 36.7424 1110.75 39.99" stroke="white" stroke-width="7" stroke-linecap="round"/>
<path d="M1113.32 38.4998C1115.65 33.1429 1121.11 25.9988 1127.69 26.2968C1132.35 26.5081 1131.62 31.9482 1130.05 34.7946" stroke="white" stroke-width="7" stroke-linecap="round"/>
<path d="M1129.24 37.8359C1133.43 35.4054 1136.43 32.3617 1141.84 33.0956C1145.53 33.5967 1145.72 37.4373 1145.37 40.4859" stroke="white" stroke-width="7" stroke-linecap="round"/>
<path d="M1143.27 44.2734C1148.48 44.33 1153.59 44.296 1158.65 45.64" stroke="white" stroke-width="7" stroke-linecap="round"/>
<path d="M1143.25 84.7656C1145.15 91.4388 1147.21 98.482 1147.97 105.38" stroke="white" stroke-width="7" stroke-linecap="round"/>
<path d="M1180.23 81C1180.04 87.2499 1180.25 91.9333 1181.67 98.3069" stroke="white" stroke-width="7" stroke-linecap="round"/>
<path d="M1145.52 128.695C1132.76 128.695 1171.95 129.988 1183.02 136.318C1188.26 139.312 1163.77 161.581 1162.94 165.719" stroke="white" stroke-width="7" stroke-linecap="round"/>
</g>
<path d="M1.13122 148.03C0.504608 137.552 9.37063 128.597 20.934 128.03C32.4975 127.462 42.3794 135.495 43.006 145.973C43.6327 156.451 34.7666 165.406 23.2032 165.973C11.6398 166.541 1.75784 158.507 1.13122 148.03Z" fill="#F3D00D" fill-opacity="0.1"/>
<path d="M766.073 287.911C765.414 276.885 773.823 267.508 784.855 266.966C795.887 266.425 805.365 274.924 806.025 285.95C806.684 296.976 798.275 306.353 787.243 306.895C776.21 307.437 766.732 298.937 766.073 287.911Z" fill="#F3D00D" fill-opacity="0.15"/>
<path d="M1280.13 43.0296C1279.5 32.5517 1288.37 23.5974 1299.93 23.0296C1311.5 22.4618 1321.38 30.4955 1322.01 40.9734C1322.63 51.4513 1313.77 60.4056 1302.2 60.9734C1290.64 61.5412 1280.76 53.5075 1280.13 43.0296Z" fill="#F3D00D" fill-opacity="0.1"/>
<path d="M1234.13 300.03C1233.5 289.552 1242.37 280.597 1253.93 280.03C1265.5 279.462 1275.38 287.495 1276.01 297.973C1276.63 308.451 1267.77 317.406 1256.2 317.973C1244.64 318.541 1234.76 310.507 1234.13 300.03Z" fill="#F3D00D" fill-opacity="0.1"/>
<path d="M1021.13 70.0296C1020.5 59.5517 1029.37 50.5974 1040.93 50.0296C1052.5 49.4618 1062.38 57.4955 1063.01 67.9734C1063.63 78.4513 1054.77 87.4056 1043.2 87.9734C1031.64 88.5412 1021.76 80.5075 1021.13 70.0296Z" fill="#F3D00D" fill-opacity="0.1"/>
<path d="M1308.71 186.442C1307.88 172.66 1318.4 160.938 1332.19 160.261C1345.98 159.583 1357.82 170.207 1358.65 183.99C1359.47 197.772 1348.96 209.494 1335.17 210.171C1321.38 210.849 1309.53 200.225 1308.71 186.442Z" fill="#F3D00D" fill-opacity="0.1"/>
<path d="M157.131 253.03C156.505 242.552 165.371 233.597 176.934 233.03C188.497 232.462 198.379 240.495 199.006 250.973C199.633 261.451 190.767 270.406 179.203 270.973C167.64 271.541 157.758 263.507 157.131 253.03Z" fill="#F3D00D" fill-opacity="0.1"/>
<path d="M1023.7 331.54C1022.76 315.824 1036.06 302.392 1053.41 301.54C1070.75 300.689 1085.58 312.739 1086.52 328.456C1087.46 344.173 1074.16 357.604 1056.81 358.456C1039.47 359.308 1024.64 347.257 1023.7 331.54Z" fill="#F3D00D" fill-opacity="0.15"/>
<path d="M544.705 283.54C543.765 267.824 557.064 254.392 574.409 253.54C591.754 252.689 606.577 264.739 607.517 280.456C608.457 296.173 595.158 309.604 577.813 310.456C560.468 311.308 545.645 299.257 544.705 283.54Z" fill="#F3D00D" fill-opacity="0.15"/>
<path d="M351.705 235.54C350.765 219.824 364.064 206.392 381.409 205.54C398.754 204.689 413.577 216.739 414.517 232.456C415.457 248.173 402.158 261.604 384.813 262.456C367.468 263.308 352.645 251.257 351.705 235.54Z" fill="#F3D00D" fill-opacity="0.15"/>
</svg>
