<svg width="180" height="218" viewBox="0 0 180 218" fill="none" xmlns="http://www.w3.org/2000/svg">
<path fill-rule="evenodd" clip-rule="evenodd" d="M88.0038 0.844559C87.3336 1.58475 87.2047 2.91644 87.2047 9.08425C87.2047 13.2323 87.4229 16.8488 87.7044 17.3756C88.4736 18.813 91.3071 18.6469 92.3172 17.1052C92.9792 16.0951 93.0777 14.7779 92.9266 8.94133C92.7716 2.94734 92.62 1.84211 91.8324 0.971548C90.7049 -0.2737 89.0651 -0.328262 88.0038 0.844559ZM44.7127 11.6887C42.4481 12.8282 42.8474 14.5418 46.9865 21.4479C50.5477 27.3897 50.8378 27.7335 52.4173 27.8837C54.2493 28.058 55.3357 27.1048 55.3357 25.3241C55.3357 24.1209 48.9257 13.1213 47.5196 11.9118C46.3559 10.9108 46.2714 10.9041 44.7127 11.6887ZM132.154 11.9118C131.055 12.8142 123.902 24.4154 123.902 25.2951C123.902 26.5119 125.454 27.9662 126.752 27.9662C128.424 27.9662 128.763 27.5746 133.013 20.7265C137.071 14.1859 137.289 12.9962 134.678 11.6221C133.335 10.9152 133.374 10.9108 132.154 11.9118ZM80.7512 27.9826C71.9592 29.3655 62.2295 33.2215 54.9842 38.1952C44.4858 45.4021 35.7435 57.3703 31.7725 69.9734C29.3108 77.7863 29.0293 79.7524 29.0443 89.0456C29.0607 99.1076 29.8406 103.431 33.1115 111.583C36.9517 121.154 42.8378 129.126 50.7669 135.494L55.0943 138.97L55.3637 146.117C55.6076 152.586 55.7524 153.495 56.8954 155.708C58.3222 158.471 61.1952 161.278 63.8959 162.547C65.5632 163.331 67.7559 163.403 89.8604 163.403H114.004L116.775 162.043C119.924 160.496 122.554 157.609 123.655 154.488C124.171 153.024 124.385 150.469 124.385 145.759V139.1L128.375 135.985C138.884 127.779 146.795 114.938 149.792 101.225C150.939 95.9734 151.186 85.207 150.292 79.3888C146.45 54.3781 127.648 34.29 102.823 28.6712C98.8692 27.776 84.8459 27.339 80.7512 27.9826ZM12.3609 43.4171C10.2344 45.5436 11.4063 46.8733 19.1799 51.1566C24.5305 54.1048 25.7285 54.5915 26.743 54.2289C28.2722 53.6823 28.871 52.1165 28.123 50.6173C27.5132 49.3937 15.6869 42.4809 14.1717 42.4621C13.7071 42.4563 12.8921 42.886 12.3609 43.4171ZM158.054 46.164C151.116 50.0152 150.26 50.8968 151.398 53.0233C152.519 55.1178 153.922 54.831 160.711 51.1189C167.22 47.5599 168.283 46.7357 168.31 45.2278C168.33 44.14 166.641 42.4486 165.549 42.4621C165.085 42.4679 161.711 44.1337 158.054 46.164ZM2.22081 85.743C0.160917 86.5262 -0.338367 89.2755 1.36276 90.4666C2.22612 91.0716 3.95622 91.2184 10.2209 91.2184C17.1495 91.2184 18.0935 91.1214 18.8047 90.3353C19.7845 89.2528 19.8279 87.8472 18.9197 86.6029C18.2977 85.7517 17.5363 85.6566 10.5903 85.5668C6.38551 85.5122 2.61917 85.5914 2.22081 85.743ZM162.048 85.743C159.989 86.5262 159.489 89.2755 161.19 90.4666C162.597 91.4521 177.341 91.5777 178.566 90.6149C179.852 89.6043 180.027 88.0843 179.004 86.8193C178.098 85.6995 177.847 85.6629 170.422 85.5668C166.215 85.5122 162.447 85.5914 162.048 85.743ZM24.9154 122.5C23.2833 123.037 12.5579 129.068 11.9988 129.763C10.6342 131.459 11.808 134.191 13.9022 134.191C15.5029 134.191 27.6677 127.409 28.2128 126.213C29.1013 124.263 26.9429 121.832 24.9154 122.5ZM152.363 123.114C151.69 123.787 151.417 124.592 151.518 125.605C151.656 126.989 152.16 127.372 158.157 130.647C161.726 132.596 165.115 134.191 165.687 134.191C168.01 134.191 169.131 131.114 167.395 129.502C166.27 128.458 154.693 122.12 153.911 122.12C153.606 122.12 152.909 122.568 152.363 123.114ZM66.9244 173.154C64.9751 173.85 64.387 176.466 65.8761 177.814C66.6719 178.533 69.036 178.613 89.7778 178.613C112.153 178.613 112.823 178.586 113.762 177.647C114.293 177.116 114.728 176.247 114.728 175.716C114.728 175.184 114.293 174.315 113.762 173.784C112.823 172.845 112.179 172.82 90.2225 172.857C77.8072 172.877 67.3228 173.011 66.9244 173.154ZM65.4927 186.789C64.7477 188.182 64.8858 189.471 65.8761 190.367C66.6714 191.087 69.0167 191.167 89.4968 191.167C102.002 191.167 112.595 191.028 113.035 190.859C114.362 190.351 114.872 188.32 114.005 186.997L113.257 185.855H89.6248C66.7545 185.855 65.9766 185.885 65.4927 186.789ZM65.7921 199.292C64.6516 200.552 64.7834 202.553 66.0664 203.451C67.0007 204.106 70.0877 204.203 89.9681 204.203C112.153 204.203 112.823 204.176 113.762 203.238C115.032 201.968 114.983 200.749 113.61 199.459C112.495 198.412 112.441 198.409 89.5422 198.409C67.9211 198.409 66.5449 198.46 65.7921 199.292ZM78.3465 212.812C77.3663 213.894 77.3233 215.3 78.2321 216.544C78.8675 217.414 79.6739 217.492 89.4818 217.628C99.7253 217.769 100.088 217.742 101.388 216.719C102.457 215.878 102.667 215.408 102.425 214.4C101.856 212.034 101.318 211.929 89.843 211.929C80.093 211.929 79.0747 212.007 78.3465 212.812Z" fill="#F3D00D"/>
<path d="M114.482 156.762C112.724 157.753 101.409 156.872 95.9143 156.762C95.9143 156.762 36.1325 132.605 84.3255 90.8072C132.519 49.0092 70.8054 36.9491 81.7128 33.3261C92.6201 29.7031 116.432 36.9039 128.538 49.0092C144.691 65.1612 149.51 89.8716 140.567 110.686C136.348 120.505 131.562 126.216 120.345 134.816L118.587 136.164V143.767C118.587 150.691 118.49 151.561 117.5 153.522C116.787 154.934 115.75 156.048 114.482 156.762Z" fill="#F34A0D"/>
<path d="M74.0681 76.5617C73.0236 76.5617 72.2791 76.2506 71.8346 75.6283C71.4123 75.0061 71.2901 74.1171 71.4679 72.9615L74.2348 55.4934C74.3904 54.4711 74.7571 53.7155 75.3349 53.2265C75.9127 52.7154 76.7128 52.4598 77.7351 52.4598C78.7574 52.4598 79.4797 52.771 79.9019 53.3932C80.3464 54.0155 80.4686 54.9045 80.2686 56.0601L77.5017 73.4948C77.3461 74.5394 76.9906 75.3172 76.435 75.8284C75.8794 76.3173 75.0904 76.5617 74.0681 76.5617Z" fill="#060606"/>
<path d="M88.0254 129.37C87.2921 129.37 86.6809 129.215 86.192 128.904C85.7253 128.592 85.4475 128.17 85.3586 127.637C85.2697 127.103 85.4252 126.515 85.8253 125.87L97.4262 107.302C97.8707 106.569 98.3485 106.046 98.8596 105.735C99.393 105.424 100.071 105.268 100.893 105.268C101.715 105.268 102.393 105.48 102.927 105.902C103.46 106.302 103.849 106.924 104.093 107.769L109.594 125.77C109.838 126.548 109.883 127.215 109.727 127.77C109.572 128.304 109.272 128.704 108.827 128.97C108.383 129.237 107.849 129.37 107.227 129.37C106.338 129.37 105.66 129.17 105.193 128.77C104.749 128.348 104.393 127.67 104.127 126.737L103.193 123.07L104.893 124.303H91.5591L93.6259 123.203L90.9923 127.67C90.6812 128.226 90.2812 128.648 89.7923 128.937C89.3033 129.226 88.7144 129.37 88.0254 129.37ZM100.226 111.969L95.0593 120.703L94.3259 119.603H103.66L102.627 120.836L100.293 111.969H100.226Z" fill="#060606"/>
</svg>
