<svg width="77" height="74" viewBox="0 0 77 74" fill="none" xmlns="http://www.w3.org/2000/svg">
<path fill-rule="evenodd" clip-rule="evenodd" d="M23.7199 22.9752C24.2746 21.7914 25.6656 21.2169 26.8268 21.692C31.2379 23.4971 34.8742 26.3626 38.1243 29.4376C39.7507 30.9764 41.3057 32.5926 42.814 34.1713L43.1971 34.5724C44.5812 36.0219 45.927 37.4312 47.3014 38.7686C48.1898 39.6332 48.1554 41.0944 47.2244 42.0323C46.2935 42.9702 44.8186 43.0296 43.9302 42.165C42.4975 40.7708 41.0988 39.306 39.7249 37.867L39.7247 37.8669L39.7246 37.8667L39.3351 37.4589C37.8245 35.878 36.3362 34.3323 34.7959 32.875C31.7123 29.9577 28.521 27.4943 24.818 25.979C23.6568 25.5038 23.1652 24.159 23.7199 22.9752ZM14.8704 59.6467C14.8473 58.3754 15.8715 57.2601 17.1582 57.1557C20.8039 56.8598 24.3278 57.2381 27.6557 57.6865C28.3089 57.7745 28.9519 57.8647 29.5873 57.9538L29.5874 57.9538L29.5875 57.9538C32.258 58.3284 34.7926 58.684 37.3697 58.7767C38.6501 58.8228 39.5838 59.8936 39.4552 61.1683C39.3265 62.4431 38.1843 63.4391 36.9039 63.3931C34.0638 63.2908 31.2377 62.8934 28.5512 62.5157L28.551 62.5157C27.9398 62.4297 27.3359 62.3448 26.7406 62.2646C23.4582 61.8224 20.352 61.5071 17.242 61.7596C15.9553 61.864 14.8935 60.918 14.8704 59.6467ZM56.9508 8.25941C56.1364 7.32542 54.6685 7.27259 53.6721 8.14139C52.6758 9.0102 52.5283 10.4717 53.3428 11.4056C57.745 16.454 60.5715 19.7631 62.5233 25.7771C62.9095 26.9669 64.2176 27.5587 65.4452 27.0989C66.6727 26.6392 67.3548 25.3019 66.9686 24.112C64.7222 17.1903 61.3593 13.3149 56.9508 8.25941Z" fill="black"/>
</svg>
