<svg width="60" height="60" viewBox="0 0 60 60" fill="none" xmlns="http://www.w3.org/2000/svg">
<g id="icons8-warranty 1">
<g id="Group">
<g id="Group_2">
<path id="Vector" d="M49.8435 49.6481C49.1763 48.1901 47.9799 46.9085 47.0847 45.5789C44.9139 42.3533 42.9855 38.9717 41.2971 35.4701C40.6263 34.0793 38.5563 35.2949 39.2247 36.6809C40.4715 39.2657 41.8455 41.7845 43.3563 44.2241C44.0871 45.4037 44.8479 46.5653 45.6387 47.7065C46.0599 48.3149 46.4931 48.9149 46.9287 49.5137C46.9923 49.6013 47.0511 49.6937 47.1147 49.7813C45.4899 49.4981 43.8375 49.1057 42.2835 49.7969C41.2503 50.2565 40.7103 51.1181 40.1883 52.0733C39.9291 52.5473 39.6507 53.0093 39.3459 53.4545C39.2499 53.5937 39.0759 53.8673 38.8971 54.1121C38.7351 53.7917 38.5851 53.4641 38.4231 53.1593C38.0991 52.5485 37.7751 51.9389 37.4511 51.3293C36.7779 50.0669 36.1011 48.8057 35.4219 47.5469C34.0395 44.9849 32.6415 42.4313 31.2315 39.8849C30.4827 38.5337 28.4103 39.7421 29.1591 41.0957C29.2431 41.2481 29.3247 41.4017 29.4099 41.5553C29.3703 41.6249 29.3211 41.6885 29.2911 41.7653C28.4127 44.0717 27.4071 46.3241 26.2743 48.5165C25.7271 49.5761 25.1511 50.6225 24.5475 51.6521C24.2223 52.2065 23.8899 52.7561 23.5491 53.3009C23.4639 53.4377 23.3775 53.5733 23.2911 53.7089C23.0739 53.1017 22.9023 52.4717 22.6695 51.8849C22.2195 50.7509 21.5679 49.6901 20.5323 49.0049C19.3767 48.2405 18.0459 48.3497 16.7559 48.6425C16.0587 48.8009 15.3639 48.9689 14.6667 49.1321C14.3391 49.2089 14.0031 49.3109 13.6671 49.3517C13.6539 49.3529 13.6419 49.3517 13.6287 49.3529C13.7559 49.1345 13.9167 48.9197 13.9923 48.7949C14.2803 48.3173 14.5719 47.8433 14.8683 47.3705C15.4359 46.4657 16.0179 45.5693 16.6143 44.6825C17.8335 42.8705 19.1139 41.1017 20.4471 39.3725C20.8431 38.8589 20.5251 38.0285 20.0163 37.7309C19.3971 37.3685 18.7719 37.6469 18.3747 38.1617C16.3611 40.7741 14.4711 43.4801 12.7227 46.2773C11.9907 47.4497 10.6599 49.0493 11.1543 50.5301C11.7279 52.2485 14.0007 51.7517 15.3051 51.4457C16.0887 51.2621 16.8699 51.0629 17.6571 50.8973C18.3435 50.7521 18.9507 50.7329 19.4919 51.2201C20.4663 52.0973 20.6763 53.5637 21.1275 54.7265C21.3699 55.3493 21.6339 56.0933 22.1187 56.5769C22.7235 57.1817 23.6751 57.1109 24.2655 56.5301C24.7899 56.0153 25.1607 55.2461 25.5495 54.6269C26.0127 53.8889 26.4627 53.1413 26.8971 52.3853C28.4067 49.7609 29.7183 47.0309 30.8691 44.2325C32.0511 46.3901 33.2391 48.5453 34.4019 50.7125C35.2887 52.3649 36.1587 54.0257 37.0431 55.6781C37.3827 56.3117 37.7979 56.8757 38.5731 56.9417C39.4647 57.0185 40.0719 56.4185 40.5891 55.7741C41.1039 55.1333 41.5815 54.4637 41.9967 53.7545C42.3435 53.1617 42.6159 52.2401 43.2999 51.9533C44.4699 51.4625 46.2339 52.0313 47.4195 52.2089C48.2271 52.3301 49.1535 52.6061 49.8111 51.9473C50.4471 51.3125 50.1687 50.3561 49.8435 49.6481ZM13.1595 49.3613L13.1607 49.3649C13.1547 49.3649 13.1499 49.3661 13.1439 49.3649C12.9915 49.3349 12.9963 49.3337 13.1595 49.3613Z" fill="#231F20"/>
<path id="Vector_2" d="M47.041 12.7542C46.0018 12.2118 44.6842 12.279 43.7014 11.661C42.5482 10.9362 42.3034 9.21775 41.6554 8.10535C40.9534 6.90295 39.8722 5.92135 38.431 5.81815C37.2826 5.73655 36.2794 6.25255 35.2066 6.55495C34.8586 6.65335 34.4854 6.75055 34.135 6.61735C33.475 6.36775 32.995 5.54095 32.4538 5.10415C31.4098 4.26055 30.0898 3.95695 28.7722 4.16455C27.3862 4.38295 26.3806 5.20615 25.5874 6.32215C25.2898 6.74095 25.009 7.29895 24.4798 7.44775C23.9818 7.58695 23.3938 7.38415 22.9222 7.23055C21.7894 6.86215 20.6854 6.33655 19.459 6.43975C18.2506 6.54175 17.1934 7.20295 16.6834 8.32015C16.261 9.24535 16.2382 10.2702 16.2106 11.2686C16.1914 11.9586 16.237 13.0026 15.7114 13.3842C14.9626 13.929 13.7194 13.6974 12.8662 14.0022C11.5918 14.4558 10.801 15.5286 10.7482 16.8822C10.7098 17.8662 11.0506 18.795 11.3806 19.7118C9.70895 20.9418 8.33376 22.5474 8.38416 24.7662C8.41776 26.2482 9.22895 27.357 10.0786 28.4958C10.4518 28.9962 10.8346 29.517 10.9882 30.1314C11.1334 30.7134 11.113 31.3182 11.1022 31.9134C11.0806 33.2034 11.0842 34.4862 11.6638 35.673C12.3262 37.0289 13.573 37.8894 14.9878 38.313C15.5734 38.4882 16.1914 38.5878 16.6798 38.9826C17.2726 39.4626 17.6434 40.1789 18.025 40.8221C18.6814 41.9297 19.4254 43.023 20.5666 43.6842C21.7558 44.373 23.0458 44.3082 24.2398 43.6793C24.6862 43.4441 25.1482 43.0313 25.6774 43.0541C26.0086 43.0673 26.3314 43.2858 26.5978 43.485C28.183 44.6706 29.407 46.7262 31.6738 46.4441C33.2362 46.2498 34.0042 45.0065 35.0638 44.0201C35.7862 43.3481 36.7174 43.299 37.6594 43.2894C39.9682 43.2642 42.2962 43.2234 43.5658 40.941C44.2078 39.7866 44.3853 38.4018 45.535 37.6049C46.7386 36.7698 48.1546 36.3318 49.1242 35.175C50.005 34.125 50.3302 32.8206 49.8562 31.5078C49.6522 30.9426 49.3066 30.4062 49.1746 29.8182C49.0618 29.3142 49.2022 28.8234 49.417 28.3638C49.963 27.195 50.8282 26.2266 51.3046 25.0182C51.7702 23.8386 51.835 22.5246 51.1786 21.3966C50.5318 20.2866 49.3246 19.7538 48.5998 18.7398C48.0118 17.9178 48.6682 16.653 48.7174 15.7494C48.7845 14.4966 48.1594 13.3374 47.041 12.7542Z" fill="#FBE151"/>
<path id="Vector_3" d="M19.3181 15.1654C15.3293 20.089 13.6361 26.935 16.7573 32.7562C19.7933 38.4178 26.1869 40.3726 32.2853 39.511C37.8977 38.7178 42.6581 34.4218 44.4173 29.0926C46.4381 22.9726 44.1749 15.4366 38.1629 12.4846C35.1017 10.9822 31.4441 10.6906 28.0901 11.095C24.9617 11.4718 21.7193 12.4762 19.5437 14.8786C17.9921 16.5922 20.5301 19.1458 22.0889 17.4238C24.9101 14.3074 30.4385 14.0278 34.2809 14.9086C39.3521 16.0714 42.1781 21.007 41.4533 26.0422C40.8329 30.3574 37.6349 34.2538 33.4553 35.5714C31.1429 36.301 28.5017 36.1822 26.1365 35.7394C23.9969 35.3386 22.1297 34.135 20.8013 32.4142C17.3885 27.9898 18.5285 21.8278 21.8633 17.7106C23.3093 15.9274 20.7773 13.3642 19.3181 15.1654Z" fill="white"/>
<path id="Vector_4" d="M51.01 9.62571C51.5452 9.13971 52.0804 8.65251 52.6156 8.16651C52.7332 8.05731 52.8148 7.92891 52.864 7.78011C52.9396 7.63731 52.9732 7.48251 52.9672 7.31811C52.9732 7.15251 52.9384 6.99891 52.864 6.85611C52.816 6.70731 52.7332 6.57891 52.6156 6.46971C52.3864 6.25971 52.0864 6.10371 51.7672 6.11811C51.6604 6.13251 51.5548 6.14691 51.448 6.16131C51.2452 6.21891 51.0688 6.32091 50.9188 6.46971C50.3836 6.95571 49.8484 7.44291 49.3132 7.92891C49.1956 8.03811 49.114 8.16651 49.0648 8.31531C48.9892 8.45811 48.9556 8.61291 48.9616 8.77731C48.9556 8.94291 48.9904 9.09651 49.0648 9.23931C49.1128 9.38811 49.1956 9.51651 49.3132 9.62571C49.5424 9.83571 49.8424 9.99171 50.1616 9.97731C50.2684 9.96291 50.374 9.94851 50.4808 9.93411C50.6848 9.87771 50.8612 9.77451 51.01 9.62571Z" fill="#C9C9C9"/>
<path id="Vector_5" d="M53.0911 15.6021C53.8459 15.3513 54.6223 15.1749 55.4095 15.0681C55.3027 15.0825 55.1971 15.0969 55.0903 15.1113C55.2079 15.0957 55.3243 15.0813 55.4419 15.0681C55.7695 15.0321 56.0491 14.9577 56.2903 14.7165C56.4979 14.5089 56.6551 14.1669 56.6419 13.8681C56.6275 13.5573 56.5255 13.2357 56.2903 13.0197C56.0707 12.8181 55.7515 12.6345 55.4419 12.6681C54.4255 12.7797 53.4235 12.9645 52.4527 13.2885C52.1563 13.3869 51.8959 13.5657 51.7351 13.8405C51.5851 14.0973 51.5203 14.4765 51.6139 14.7657C51.7075 15.0561 51.8875 15.3357 52.1659 15.4833C52.4431 15.6273 52.7839 15.7041 53.0911 15.6021Z" fill="#C9C9C9"/>
<path id="Vector_6" d="M54.0745 21.0698C54.1117 21.0746 54.1489 21.0782 54.1873 21.0842C54.0805 21.0698 53.9749 21.0554 53.8681 21.041C54.3361 21.1058 54.7933 21.2306 55.2301 21.4142C55.1341 21.3734 55.0393 21.3338 54.9433 21.293C54.9601 21.3002 54.9781 21.3074 54.9949 21.3158C55.1329 21.4034 55.2817 21.4514 55.4413 21.4586C55.6009 21.4946 55.7605 21.4874 55.9201 21.437C56.0761 21.3998 56.2117 21.3278 56.3281 21.2222C56.4589 21.137 56.5621 21.0254 56.6377 20.885C56.7853 20.6066 56.8585 20.2694 56.7589 19.9598C56.7181 19.8638 56.6785 19.769 56.6377 19.673C56.5309 19.493 56.3881 19.349 56.2069 19.2422C55.8685 19.0958 55.5301 18.9554 55.1725 18.8594C54.8125 18.7634 54.4441 18.7118 54.0757 18.6686C53.9101 18.6626 53.7565 18.6974 53.6137 18.7718C53.4649 18.8198 53.3365 18.9026 53.2273 19.0202C53.1097 19.1294 53.0281 19.2578 52.9789 19.4066C52.9033 19.5494 52.8697 19.7042 52.8757 19.8686C52.8901 20.1794 52.9921 20.501 53.2273 20.717C53.3077 20.7794 53.3893 20.8418 53.4697 20.9042C53.6569 21.0146 53.8585 21.0686 54.0745 21.0698Z" fill="#C9C9C9"/>
<path id="Vector_7" d="M4.20859 17.945C5.02699 18.0098 5.84419 18.0734 6.66259 18.1382C6.95419 18.161 7.30939 17.9882 7.51099 17.7866C7.71859 17.579 7.87579 17.237 7.86259 16.9382C7.84819 16.6274 7.74619 16.3058 7.51099 16.0898C7.26619 15.8654 6.99499 15.7646 6.66259 15.7382C5.84419 15.6734 5.02699 15.6098 4.20859 15.545C3.91699 15.5222 3.56179 15.695 3.36019 15.8966C3.15259 16.1042 2.99539 16.4462 3.00859 16.745C3.02299 17.0558 3.12499 17.3774 3.36019 17.5934C3.60499 17.8178 3.87739 17.9186 4.20859 17.945Z" fill="#C9C9C9"/>
<path id="Vector_8" d="M5.27629 11.6557C5.96629 12.1141 6.70909 12.4705 7.48189 12.7669C7.64149 12.8173 7.80109 12.8245 7.96069 12.7885C8.12029 12.7813 8.26909 12.7333 8.40709 12.6457C8.65549 12.5005 8.89309 12.2149 8.95909 11.9281C9.02749 11.6209 9.01309 11.2765 8.83669 11.0041C8.77429 10.9225 8.71189 10.8421 8.64949 10.7605C8.49949 10.6117 8.32309 10.5085 8.12029 10.4521C8.01109 10.4101 7.90429 10.3669 7.79629 10.3213C7.89229 10.3621 7.98709 10.4017 8.08309 10.4425C7.52629 10.2061 6.99229 9.91807 6.48829 9.58327C6.35029 9.49567 6.20149 9.44767 6.04189 9.44047C5.88229 9.40447 5.72269 9.41167 5.56309 9.46207C5.28469 9.53887 4.98349 9.75367 4.84549 10.0141C4.69909 10.2925 4.62589 10.6297 4.72549 10.9381C4.82509 11.2453 5.00629 11.4757 5.27629 11.6557Z" fill="#C9C9C9"/>
<path id="Vector_9" d="M9.09854 6.84094C9.38894 7.25974 9.63494 7.70734 9.83414 8.17774C9.79334 8.08294 9.75374 7.98694 9.71294 7.89094C9.76454 8.01334 9.81254 8.13694 9.85694 8.26174C9.89414 8.41774 9.96614 8.55334 10.0717 8.66974C10.1569 8.80054 10.2685 8.90374 10.4089 8.97934C10.5469 9.06694 10.6957 9.11494 10.8553 9.12214C11.0149 9.15814 11.1745 9.15094 11.3341 9.10054C11.6245 9.00694 11.9041 8.82694 12.0517 8.54854C12.1957 8.27614 12.2809 7.92574 12.1729 7.62334C11.9197 6.92134 11.5981 6.24334 11.1721 5.63014C11.0953 5.48974 10.9921 5.37814 10.8613 5.29294C10.7461 5.18734 10.6093 5.11534 10.4533 5.07814C10.2937 5.02894 10.1341 5.02174 9.97454 5.05774C9.81494 5.06494 9.66614 5.11174 9.52934 5.19934C9.27254 5.36494 9.04694 5.61094 8.97734 5.91694C8.90894 6.21814 8.91614 6.57814 9.09854 6.84094Z" fill="#C9C9C9"/>
<path id="Vector_10" d="M30.2333 32.4341C26.1329 32.4341 22.7969 29.0981 22.7969 24.9977C22.7969 20.8973 26.1329 17.5625 30.2333 17.5625C34.3337 17.5625 37.6685 20.8973 37.6685 24.9977C37.6685 29.0981 34.3337 32.4341 30.2333 32.4341ZM30.2333 18.7625C26.7941 18.7625 23.9969 21.5597 23.9969 24.9977C23.9969 28.4369 26.7941 31.2341 30.2333 31.2341C33.6713 31.2341 36.4685 28.4369 36.4685 24.9977C36.4697 21.5597 33.6713 18.7625 30.2333 18.7625Z" fill="#231F20"/>
</g>
</g>
</g>
</svg>
