<svg width="48" height="49" viewBox="0 0 48 49" fill="none" xmlns="http://www.w3.org/2000/svg">
<g clip-path="url(#clip0_2308_9981)">
<path d="M24 0.523438C10.7453 0.523438 0 11.2687 0 24.5234C0 35.7785 7.74912 45.223 18.2026 47.8169V31.8578H13.2538V24.5234H18.2026V21.3631C18.2026 13.1945 21.8995 9.40824 29.9194 9.40824C31.44 9.40824 34.0637 9.7068 35.137 10.0044V16.6524C34.5706 16.5929 33.5866 16.5631 32.3645 16.5631C28.4294 16.5631 26.9088 18.054 26.9088 21.9295V24.5234H34.7482L33.4013 31.8578H26.9088V48.3478C38.7926 46.9126 48.001 36.7942 48.001 24.5234C48 11.2687 37.2547 0.523438 24 0.523438Z" fill="#C9C9C9"/>
</g>
<defs>
<clipPath id="clip0_2308_9981">
<rect width="48" height="48" fill="white" transform="translate(0 0.523438)"/>
</clipPath>
</defs>
</svg>
