<svg width="48" height="49" viewBox="0 0 48 49" fill="none" xmlns="http://www.w3.org/2000/svg">
<g clip-path="url(#clip0_2308_9983)">
<path d="M44.4469 0.523438H3.54375C1.58437 0.523438 0 2.07031 0 3.98281V45.0547C0 46.9672 1.58437 48.5234 3.54375 48.5234H44.4469C46.4062 48.5234 48 46.9672 48 45.0641V3.98281C48 2.07031 46.4062 0.523438 44.4469 0.523438ZM14.2406 41.4266H7.11563V18.5141H14.2406V41.4266ZM10.6781 15.3922C8.39062 15.3922 6.54375 13.5453 6.54375 11.2672C6.54375 8.98906 8.39062 7.14219 10.6781 7.14219C12.9563 7.14219 14.8031 8.98906 14.8031 11.2672C14.8031 13.5359 12.9563 15.3922 10.6781 15.3922ZM40.9031 41.4266H33.7875V30.2891C33.7875 27.6359 33.7406 24.2141 30.0844 24.2141C26.3812 24.2141 25.8187 27.1109 25.8187 30.1016V41.4266H18.7125V18.5141H25.5375V21.6453H25.6312C26.5781 19.8453 28.9031 17.9422 32.3625 17.9422C39.5719 17.9422 40.9031 22.6859 40.9031 28.8547V41.4266Z" fill="#C9C9C9"/>
</g>
<defs>
<clipPath id="clip0_2308_9983">
<rect width="48" height="48" fill="white" transform="translate(0 0.523438)"/>
</clipPath>
</defs>
</svg>
