<svg width="375" height="461" viewBox="0 0 375 461" fill="none" xmlns="http://www.w3.org/2000/svg">
<path d="M346.19 22.3724C345.531 11.3464 353.94 1.96893 364.972 1.42721C376.005 0.885488 385.483 9.38467 386.142 20.4107C386.801 31.4367 378.392 40.8142 367.36 41.3559C356.328 41.8976 346.85 33.3984 346.19 22.3724Z" fill="#F3D00D" fill-opacity="0.15"/>
<path d="M313.705 123.99C312.765 108.273 326.064 94.8413 343.409 93.9896C360.754 93.138 375.577 105.189 376.517 120.905C377.457 136.622 364.158 150.054 346.813 150.905C329.468 151.757 314.645 139.707 313.705 123.99Z" fill="#F3D00D" fill-opacity="0.15"/>
<path d="M351.81 266.493C351.362 258.996 357.706 252.589 365.98 252.182C374.255 251.776 381.326 257.525 381.774 265.022C382.222 272.52 375.878 278.927 367.604 279.333C359.33 279.74 352.259 273.991 351.81 266.493Z" fill="#F3D00D" fill-opacity="0.1"/>
<path d="M98.8102 430.493C98.3618 422.996 104.706 416.589 112.98 416.182C121.255 415.776 128.326 421.525 128.774 429.022C129.222 436.52 122.878 442.927 114.604 443.333C106.33 443.74 99.2586 437.991 98.8102 430.493Z" fill="#F3D00D" fill-opacity="0.1"/>
<path d="M327.083 406.509C326.485 396.513 334.944 387.97 345.976 387.428C357.009 386.886 366.437 394.551 367.035 404.548C367.633 414.544 359.174 423.088 348.141 423.629C337.109 424.171 327.681 416.506 327.083 406.509Z" fill="#F3D00D" fill-opacity="0.1"/>
<path d="M64.4683 195.9C64.0797 189.402 69.578 183.849 76.749 183.497C83.9201 183.145 90.0484 188.127 90.437 194.625C90.8256 201.123 85.3273 206.676 78.1563 207.028C70.9852 207.38 64.8569 202.398 64.4683 195.9Z" fill="#F3D00D" fill-opacity="0.1"/>
<g opacity="0.2">
<path d="M80.8659 337.262C80.4172 338.361 77.2143 336.767 76.4727 336.463C73.5862 335.282 70.1654 333.262 69.2086 330.045C68.6771 328.258 69.0612 325.495 71.4277 325.674C73.5991 325.838 75.794 327.25 77.6494 328.274" stroke="white" stroke-width="3.54863" stroke-linecap="round"/>
<path d="M78.826 327.436C77.8726 329.113 77.9183 325.922 77.9471 325.358C78.0209 323.908 78.5258 322.264 79.283 321.039C79.7346 320.308 80.567 319.17 81.5761 319.361C82.3188 319.502 82.8969 320.563 83.2578 321.133C84.0723 322.418 84.9425 323.915 85.3208 325.403C86.3479 329.442 85.0463 333.214 82.9413 336.642" stroke="white" stroke-width="3.54863" stroke-linecap="round"/>
<path d="M99.1197 319.573C99.7635 319.77 98.5871 319.072 98.4356 318.984C97.1356 318.228 96.0034 317.442 94.8706 316.436C92.6937 314.502 89.6234 311.63 89.805 308.401C89.9706 305.455 93.4452 306.674 95.0253 307.582C96.6392 308.509 97.9524 309.621 99.2375 310.928" stroke="white" stroke-width="3.54863" stroke-linecap="round"/>
<path d="M98.7626 309.971C97.5965 308.786 98.7661 306.028 99.4191 304.834C99.6365 304.436 100.231 303.536 100.765 303.497C101.627 303.435 102.232 304.128 102.574 304.824C103.132 305.965 103.212 307.346 103.369 308.587C103.56 310.101 103.556 311.699 103.446 313.218C103.241 316.076 101.901 318.285 100.061 320.43" stroke="white" stroke-width="3.54863" stroke-linecap="round"/>
<path d="M98.8749 342.373C101.556 344.465 105.042 345.755 108.045 343.266C110.952 340.857 110.402 338.118 108.931 335.115" stroke="white" stroke-width="3.54863" stroke-linecap="round"/>
<path d="M49.2939 315.228C42.6023 323.219 37.9497 332.462 38.9828 343.159C39.9287 352.952 46.6853 361.599 54.8347 366.526C76.1216 379.397 105.176 368.059 116.628 347.258C122.223 337.097 123.912 326.112 119.685 315.05C115.763 304.786 105.534 296.918 94.8786 294.723C88.9321 293.498 82.9668 293.018 77.0501 294.627C69.5415 296.669 62.6528 300.694 56.5577 305.478C51.7784 309.229 47.3397 314.054 43.9973 319.129C40.6223 324.253 38.5975 329.175 36.8264 334.97" stroke="white" stroke-width="3.54863" stroke-linecap="round"/>
<path d="M265.044 326.799C258.352 334.789 253.7 344.033 254.733 354.729C255.679 364.522 262.435 373.169 270.585 378.096C291.872 390.967 320.926 379.629 332.378 358.829C337.973 348.667 339.662 337.682 335.435 326.62C331.513 316.356 321.284 308.489 310.629 306.293C304.682 305.068 298.717 304.588 292.8 306.197C285.292 308.239 278.403 312.265 272.308 317.048C267.528 320.799 263.09 325.624 259.747 330.699C256.372 335.823 254.347 340.745 252.576 346.541" stroke="white" stroke-width="3.54863" stroke-linecap="round"/>
<path d="M77.7734 371.922C86.9312 370.44 96.6605 370.985 105.918 371.222C121.042 371.61 136.174 371.326 151.3 371.146" stroke="white" stroke-width="3.54863" stroke-linecap="round"/>
<path d="M292.328 383.391C283.385 380.926 273.654 380.415 264.425 379.649C249.348 378.397 234.336 376.477 219.318 374.66" stroke="white" stroke-width="3.54863" stroke-linecap="round"/>
<path d="M151.904 371.484C150.146 375.698 154.109 361.937 157.639 359.046C159.503 357.52 160.568 357.43 161.323 359.956C162.142 362.695 162.849 365.552 163.232 368.389" stroke="white" stroke-width="3.54863" stroke-linecap="round"/>
<path d="M218.68 374.932C219.971 379.311 217.522 365.202 214.326 361.946C212.638 360.227 211.589 360.023 210.565 362.452C209.454 365.086 208.442 367.85 207.753 370.629" stroke="white" stroke-width="3.54863" stroke-linecap="round"/>
<path d="M163.416 369.783C162.768 367.897 173.412 365.775 174.885 370.054C176.699 375.329 169.053 376.577 165.746 376.553" stroke="white" stroke-width="3.54863" stroke-linecap="round"/>
<path d="M207.413 371.996C208.262 370.192 197.91 366.93 195.983 371.025C193.608 376.072 201.074 378.141 204.364 378.475" stroke="white" stroke-width="3.54863" stroke-linecap="round"/>
<path d="M164.94 377.935C163.913 378.44 167.309 377.824 168.353 378.291C170.857 379.41 172.933 380.246 172.524 383.331C171.857 388.373 165.181 389.901 161.297 387.64" stroke="white" stroke-width="3.54863" stroke-linecap="round"/>
<path d="M205.015 379.933C205.981 380.546 202.672 379.566 201.583 379.917C198.973 380.759 196.819 381.365 196.891 384.476C197.008 389.561 203.479 391.802 207.585 389.975" stroke="white" stroke-width="3.54863" stroke-linecap="round"/>
<path d="M161.215 389.082C160.595 389.489 160.898 390.82 160.806 391.448C160.622 392.701 159.922 394.837 158.895 395.694C155.595 398.449 152.032 396.526 150.367 393.129" stroke="white" stroke-width="3.54863" stroke-linecap="round"/>
<path d="M207.514 391.419C208.086 391.891 207.64 393.182 207.664 393.816C207.711 395.082 208.176 397.281 209.104 398.244C212.086 401.34 215.837 399.814 217.859 396.617" stroke="white" stroke-width="3.54863" stroke-linecap="round"/>
<path d="M122.692 329.895C131.965 324.776 139.816 316.859 148.187 310.424C154.624 305.476 160.98 300.431 167.465 295.55" stroke="white" stroke-width="3.54863" stroke-linecap="round"/>
<path d="M166.988 296.942C166.425 295.793 165.813 295.162 165.458 293.817C164.937 291.847 164.759 288.384 165.71 286.475C167.149 283.587 170.572 282.532 173.528 283.703C175.734 284.577 176.659 286.724 177.251 288.813" stroke="white" stroke-width="3.54863" stroke-linecap="round"/>
<path d="M177.7 290.519C176.057 289.847 180.28 287.146 180.923 286.707C183.872 284.694 186.907 283.268 190.516 283.063C196.275 282.735 191.65 289.928 189.748 291.536" stroke="white" stroke-width="3.54863" stroke-linecap="round"/>
<path d="M189.736 293.858C191.497 292.992 197.038 291.72 196.893 295.544C196.75 299.336 192.659 300.787 189.525 301.286" stroke="white" stroke-width="3.54863" stroke-linecap="round"/>
<path d="M187.041 303.283C186.517 302.482 186.811 304.409 186.843 304.623C187.102 306.398 187.918 308.034 187.748 309.875C187.392 313.714 182.813 314.924 180.011 313.292" stroke="white" stroke-width="3.54863" stroke-linecap="round"/>
<path d="M252.226 316.965C249.062 320.363 245.079 320.784 243.017 316.13C241.739 313.248 249.022 311.979 250.416 311.561" stroke="white" stroke-width="3.54863" stroke-linecap="round"/>
<path d="M250.245 312.062C245.117 310.308 249.086 302.98 252.438 301.332C254.994 300.076 256.518 304.337 257.357 306.049" stroke="white" stroke-width="3.54863" stroke-linecap="round"/>
<path d="M258.714 305.386C260.083 302.756 263.097 299.331 266.412 299.714C268.762 299.986 268.199 302.715 267.304 304.101" stroke="white" stroke-width="3.54863" stroke-linecap="round"/>
<path d="M266.783 305.614C268.985 304.531 270.615 303.096 273.321 303.658C275.169 304.043 275.134 305.995 274.844 307.526" stroke="white" stroke-width="3.54863" stroke-linecap="round"/>
<path d="M273.656 309.367C276.288 309.58 278.872 309.743 281.386 310.603" stroke="white" stroke-width="3.54863" stroke-linecap="round"/>
<path d="M272.211 329.875C272.935 333.322 273.727 336.962 273.87 340.482" stroke="white" stroke-width="3.54863" stroke-linecap="round"/>
<path d="M291.044 329.275C290.73 332.434 290.67 334.814 291.161 338.091" stroke="white" stroke-width="3.54863" stroke-linecap="round"/>
<path d="M271.8 352.203C265.348 351.751 285.121 353.792 290.498 357.389C293.042 359.091 279.865 369.503 279.3 371.569" stroke="white" stroke-width="3.54863" stroke-linecap="round"/>
</g>
<path d="M129.131 235.475C128.505 224.997 137.371 216.043 148.934 215.475C160.497 214.907 170.379 222.941 171.006 233.419C171.633 243.897 162.767 252.851 151.203 253.419C139.64 253.986 129.758 245.953 129.131 235.475Z" fill="#F3D00D" fill-opacity="0.1"/>
<path d="M3.89846 259.889C3.40391 251.619 9.71065 244.586 17.985 244.18C26.2593 243.773 33.3678 250.148 33.8624 258.417C34.3569 266.687 28.0502 273.72 19.7759 274.126C11.5016 274.533 4.393 268.158 3.89846 259.889Z" fill="#F3D00D" fill-opacity="0.1"/>
<path d="M214.975 444.502C214.437 435.505 222.05 427.816 231.979 427.329C241.909 426.841 250.394 433.74 250.932 442.737C251.47 451.734 243.857 459.423 233.928 459.91C223.999 460.398 215.513 453.499 214.975 444.502Z" fill="#F3D00D" fill-opacity="0.1"/>
<path d="M-5.18983 374.493C-5.63821 366.996 0.705953 360.589 8.98026 360.182C17.2546 359.776 24.3257 365.525 24.7741 373.022C25.2225 380.52 18.8783 386.927 10.604 387.333C2.32968 387.74 -4.74145 381.991 -5.18983 374.493Z" fill="#F3D00D" fill-opacity="0.1"/>
<path d="M256.49 211.852C255.665 198.07 266.177 186.348 279.967 185.671C293.758 184.994 305.605 195.618 306.429 209.4C307.254 223.183 296.742 234.904 282.952 235.582C269.161 236.259 257.314 225.635 256.49 211.852Z" fill="#F3D00D" fill-opacity="0.1"/>
</svg>
