<svg width="228" height="230" viewBox="0 0 228 230" fill="none" xmlns="http://www.w3.org/2000/svg">
<g opacity="0.7">
<path d="M24.3805 74.6507C24.3805 101.669 47.9301 120.801 71.9089 128.385C95.6171 135.884 119.54 136.108 141.761 123.734C157.69 114.863 172.372 98.7116 177.607 80.9866C183.098 62.3982 178.245 42.1197 165.845 27.4925C150.67 9.59121 129.541 3.22647 106.475 4.07381C64.5149 5.61521 24.9831 33.8979 21.5 77.538" stroke="#1A1A1A" stroke-width="7" stroke-linecap="round"/>
<path fill-rule="evenodd" clip-rule="evenodd" d="M141.699 47.5336C142.871 49.0771 142.573 51.2808 141.033 52.4557C140.777 52.6508 140.171 53.0644 139.41 53.5844C138.812 53.9924 138.119 54.4659 137.424 54.9507C135.698 56.1538 133.612 57.6576 131.687 59.216C129.753 60.782 128.164 62.2574 127.235 63.4386C127.489 63.5351 127.777 63.6284 128.098 63.7161C129.275 64.0373 130.597 64.2038 131.65 64.2883C137.239 64.7365 142.679 64.9604 148.294 64.9604C150.23 64.9604 151.798 66.533 151.798 68.4728C151.798 70.4125 150.23 71.9851 148.294 71.9851C142.487 71.9851 136.861 71.7532 131.092 71.2905C129.842 71.1903 128.034 70.9788 126.257 70.494C124.615 70.0457 122.35 69.1983 120.836 67.4052C119.51 65.8341 119.467 63.9792 119.85 62.5631C120.199 61.2708 120.934 60.1215 121.639 59.208C123.079 57.3435 125.217 55.4239 127.284 53.7509C129.397 52.0402 131.638 50.4274 133.422 49.1838C134.284 48.5826 135.049 48.0612 135.643 47.6563L135.709 47.6114C136.014 47.4037 136.263 47.234 136.459 47.0983C136.557 47.0309 136.634 46.9766 136.695 46.9337C136.724 46.9126 136.747 46.896 136.764 46.8836C136.78 46.8724 136.787 46.8669 136.788 46.8662C138.328 45.6913 140.526 45.9901 141.699 47.5336ZM67.755 52.0892C68.4105 50.2641 70.418 49.3172 72.2389 49.9742C75.899 51.2949 79.4796 52.2916 83.3041 53.3561L83.3048 53.3564L83.3057 53.3566C83.9662 53.5405 84.634 53.7263 85.3108 53.9163L85.4337 53.9507C86.6333 54.287 88.7264 54.8738 90.6904 55.7192C91.71 56.158 92.8119 56.7149 93.7912 57.4185C94.735 58.0966 95.8359 59.1029 96.4708 60.5348C97.2355 62.2592 96.9319 63.945 96.2983 65.2187C95.714 66.3933 94.8045 67.3455 93.9561 68.0807C92.2407 69.5672 89.8795 70.9204 87.6308 72.051C85.3284 73.2085 82.9038 74.2498 80.9202 75.0669C79.9649 75.4604 79.1613 75.7829 78.5115 76.0437C77.7254 76.3592 77.1646 76.5842 76.833 76.7353C75.0712 77.538 72.9938 76.7571 72.193 74.9912C71.3922 73.2253 72.1712 71.143 73.933 70.3403C74.384 70.1348 75.2129 69.8012 76.1948 69.406C76.8374 69.1473 77.5456 68.8623 78.2561 68.5696C80.1796 67.7773 82.4174 66.8133 84.4886 65.772C86.5495 64.7358 88.2328 63.7268 89.2773 62.848C88.9107 62.6303 88.4576 62.403 87.9251 62.1738C86.3958 61.5156 84.6799 61.034 83.4404 60.6861L83.4212 60.6807C82.7725 60.4987 82.1227 60.3179 81.4716 60.1368L81.4708 60.1366L81.4708 60.1366C77.6537 59.0748 73.7922 58.0006 69.865 56.5836C68.0442 55.9265 67.0995 53.9143 67.755 52.0892ZM130.058 89.4937C130.478 87.6001 129.287 85.7239 127.397 85.3031C125.508 84.8823 123.636 86.0763 123.217 87.9699C122.546 90.9944 121.565 94.7561 119.955 97.788C118.316 100.873 116.491 102.377 114.423 102.557C110.882 102.866 108.372 101.827 106 100.006C104.164 98.5949 102.607 96.9039 100.778 94.9174C99.9605 94.0291 99.0883 93.0817 98.1124 92.0738C96.7645 90.6819 94.5461 90.6487 93.1573 91.9997C91.7686 93.3507 91.7355 95.5743 93.0834 96.9663C93.7605 97.6655 94.4646 98.43 95.1939 99.2217L95.194 99.2217C97.1989 101.398 99.3938 103.781 101.737 105.581C105.22 108.256 109.425 110.044 115.03 109.555C120.628 109.068 124.08 104.97 126.141 101.089C128.23 97.156 129.372 92.5895 130.058 89.4937Z" fill="#1A1A1A"/>
<path d="M8.82361 137.93C-0.0433022 158.338 2.63113 185.864 22.5756 198.919C43.2597 212.459 66.6593 207.724 88.5095 200.808" stroke="#1A1A1A" stroke-width="7" stroke-linecap="round"/>
<path d="M85.6435 202.324C82.3293 199.002 80.3614 195.212 79.7376 190.46C79.1349 185.869 80.0411 179.486 84.4283 176.891C95.5847 170.292 103.063 187.176 105.767 195.308" stroke="#1A1A1A" stroke-width="7" stroke-linecap="round"/>
<path d="M107.086 192.679C109.463 190.296 114.222 189.65 117.488 189.609C123.25 189.537 131.063 190.472 135.181 195.066C139.48 199.862 138.198 204.106 133.772 208.465C130.113 212.067 125.068 212.411 120.21 212.411" stroke="#1A1A1A" stroke-width="7" stroke-linecap="round"/>
<path d="M119.335 212.844C122.369 213.004 131.104 218.907 128.206 222.929C126.549 225.229 121.925 225.999 119.311 225.999C115.753 225.999 112.224 225.339 109.273 223.368" stroke="#1A1A1A" stroke-width="7" stroke-linecap="round"/>
<path d="M202.038 88.8867C209.199 93.0022 212.917 97.2835 216.469 104.729C221.596 115.474 225.24 129.896 223.609 141.887C220.884 161.911 200.66 178.221 181.422 181.187" stroke="#1A1A1A" stroke-width="7" stroke-linecap="round"/>
<path d="M181.55 181.537C181.083 175.926 174.523 156.963 165.928 162.815C160.785 166.316 161.521 177.51 164.909 181.877" stroke="#1A1A1A" stroke-width="7" stroke-linecap="round"/>
<path d="M162.526 181.883C156.952 186.272 147.07 190.669 146.3 198.865C145.386 208.599 159.452 203.496 163.884 201.626" stroke="#1A1A1A" stroke-width="7" stroke-linecap="round"/>
<path d="M163.548 200.602C159.822 202.798 162.688 209.786 165.133 211.835C170.639 216.449 179.014 210.537 182.226 205.707" stroke="#1A1A1A" stroke-width="7" stroke-linecap="round"/>
</g>
</svg>
