<svg width="317" height="234" viewBox="0 0 317 234" fill="none" xmlns="http://www.w3.org/2000/svg">
<g opacity="0.5">
<path d="M97.7627 125.103C93.7287 144.843 102.54 160.926 120.096 170.822C132.665 177.907 148.744 180.412 163 179.302C181.194 177.886 199.41 170.607 211.732 156.722C221.983 145.17 228.13 130.213 224.502 114.774C216.236 79.5985 171.574 62.1794 139.077 69.6329C123.812 73.1342 105.841 81.5093 97.9345 95.9316C90.2516 109.945 93.7953 125.696 98.0511 140.102" stroke="black" stroke-width="5.57272" stroke-linecap="round"/>
<path fill-rule="evenodd" clip-rule="evenodd" d="M75.5909 39.8202C76.4984 38.5781 78.2402 38.3077 79.4814 39.2163C84.1966 42.6678 87.7763 47.1498 90.8614 51.7661C92.4053 54.0763 93.8489 56.4573 95.2469 58.7798L95.6019 59.3699C96.8845 61.5021 98.1316 63.5753 99.4278 65.5715C100.266 66.862 99.9001 68.5878 98.6109 69.4263C97.3218 70.2648 95.5974 69.8984 94.7594 68.6079C93.4082 66.5269 92.112 64.3721 90.8388 62.2553L90.8386 62.255L90.4777 61.655C89.0777 59.3292 87.6956 57.0518 86.2335 54.864C83.3066 50.4843 80.1534 46.6119 76.1951 43.7144C74.9539 42.8058 74.6834 41.0624 75.5909 39.8202ZM57.1523 80.7673C57.4089 79.25 58.8459 78.2285 60.3619 78.4856C64.6574 79.2142 68.6614 80.7078 72.4223 82.2265C73.1605 82.5246 73.8865 82.8223 74.6037 83.1165C77.6185 84.3528 80.4798 85.5262 83.449 86.4C84.9242 86.8341 85.7687 88.383 85.3353 89.8594C84.9019 91.3359 83.3546 92.1808 81.8794 91.7467C78.6073 90.7838 75.4171 89.4743 72.3845 88.2295L72.3845 88.2294C71.6945 87.9462 71.0127 87.6664 70.3399 87.3947C66.6304 85.8967 63.097 84.6019 59.4326 83.9803C57.9166 83.7231 56.8956 82.2846 57.1523 80.7673ZM117.426 32.183C116.69 30.832 114.998 30.3343 113.649 31.0713C112.299 31.8083 111.802 33.501 112.539 34.852C116.521 42.1544 119.062 46.9234 119.986 54.6469C120.168 56.175 121.554 57.2657 123.081 57.0831C124.607 56.9006 125.697 55.5138 125.514 53.9857C124.451 45.0964 121.414 39.4956 117.426 32.183Z" fill="black"/>
<path fill-rule="evenodd" clip-rule="evenodd" d="M162.82 94.4145C164.238 93.4241 165.811 92.7118 167.202 92.5351C168.485 92.3721 169.511 92.6558 170.378 93.5709C172.68 96.0012 173.861 99.0938 175.252 102.737C175.515 103.426 175.786 104.135 176.073 104.862C176.638 106.294 178.255 106.996 179.685 106.431C181.115 105.866 181.816 104.248 181.252 102.816C181.021 102.233 180.79 101.62 180.551 100.985C179.184 97.3626 177.558 93.0515 174.418 89.7368C172.101 87.2911 169.185 86.6653 166.5 87.0064C163.921 87.334 161.501 88.5397 159.633 89.8435C156.879 91.7666 155.279 94.5183 154.178 97.1355C153.624 98.4511 153.171 99.7958 152.767 101.049C152.661 101.376 152.56 101.693 152.461 102.003L152.46 102.005L152.46 102.007C152.169 102.919 151.9 103.763 151.607 104.579C151.061 106.107 150.24 108.08 149.179 109.719C148.047 111.466 147.019 112.252 146.267 112.411C143.003 113.106 140.892 111.36 137.315 108.019C135.455 106.281 133.18 105.188 130.713 105.061C128.229 104.934 125.812 105.801 123.73 107.517C119.106 111.328 116.613 116.641 118.149 123.031C118.589 124.864 119.648 126.717 121.072 128.116C122.491 129.51 124.567 130.723 127.047 130.581C128.582 130.493 129.755 129.177 129.667 127.64C129.579 126.104 128.263 124.929 126.728 125.017C126.319 125.041 125.691 124.846 124.973 124.139C124.259 123.438 123.747 122.499 123.562 121.729C122.616 117.791 123.968 114.541 127.27 111.819C128.408 110.882 129.49 110.579 130.429 110.627C131.386 110.676 132.458 111.104 133.517 112.093C133.611 112.181 133.707 112.27 133.803 112.361C136.948 115.306 141.113 119.205 147.426 117.863C150.432 117.223 152.519 114.808 153.851 112.75C155.254 110.584 156.245 108.148 156.849 106.459C157.177 105.543 157.489 104.567 157.787 103.631L157.787 103.631C157.881 103.337 157.973 103.047 158.065 102.764C158.46 101.541 158.853 100.385 159.309 99.3C160.228 97.1168 161.305 95.4722 162.82 94.4145ZM134.163 120.414C132.981 119.429 131.226 119.589 130.242 120.771C129.258 121.953 129.418 123.711 130.6 124.696C131.699 125.612 132.593 126.884 133.608 128.532C133.775 128.804 133.948 129.091 134.128 129.389L134.128 129.389L134.128 129.389C134.957 130.762 135.922 132.36 137.072 133.732C138.06 134.912 139.816 135.066 140.994 134.078C142.172 133.089 142.326 131.331 141.338 130.152C140.491 129.141 139.801 128.002 138.984 126.654C138.781 126.319 138.57 125.971 138.347 125.609C137.302 123.911 136.012 121.955 134.163 120.414ZM167.386 104.16C168.78 103.513 170.436 104.119 171.083 105.515C171.855 107.18 172.458 108.974 173.002 110.593L173.003 110.594L173.004 110.597C173.132 110.979 173.257 111.352 173.381 111.71C174.061 113.687 174.723 115.379 175.653 116.82C176.488 118.113 176.117 119.838 174.825 120.672C173.534 121.507 171.811 121.136 170.976 119.843C169.655 117.796 168.814 115.553 168.116 113.524C167.964 113.082 167.82 112.653 167.679 112.236L167.678 112.234C167.142 110.644 166.663 109.219 166.033 107.861C165.385 106.465 165.991 104.808 167.386 104.16ZM171.127 142.169C170.157 140.195 168.27 137.769 165.988 136.11C163.775 134.502 160.3 133.044 156.905 135.072C153.606 137.043 152.908 140.611 153.099 143.426C153.151 144.201 153.272 144.979 153.446 145.742C152.853 146.601 152.77 147.761 153.329 148.725C154.572 150.869 156.512 152.993 158.797 154.525C161.066 156.045 163.956 157.159 167.013 156.752C169.015 156.485 170.532 155.435 171.475 153.929C172.344 152.541 172.623 150.94 172.67 149.562C172.762 146.83 171.97 143.886 171.127 142.169ZM160.294 147.857C160.552 148.221 160.711 148.627 160.775 149.041C161.131 149.347 161.506 149.634 161.894 149.894C163.484 150.959 165.016 151.396 166.277 151.227C166.616 151.182 166.683 151.087 166.757 150.969C166.905 150.732 167.076 150.228 167.105 149.372C167.164 147.637 166.607 145.597 166.13 144.627C165.534 143.413 164.219 141.711 162.717 140.619C161.146 139.477 160.255 139.562 159.759 139.858C159.051 140.281 158.53 141.213 158.654 143.05C158.777 144.865 159.527 146.775 160.294 147.857Z" fill="black"/>
<path fill-rule="evenodd" clip-rule="evenodd" d="M285.754 100.753C284.516 99.1508 282.933 98.2048 281.167 97.8947C279.482 97.599 277.855 97.9192 276.482 98.4097C273.789 99.3716 271.308 101.276 269.828 102.465C268.629 103.429 268.438 105.183 269.401 106.383C270.363 107.583 272.116 107.775 273.314 106.811C274.795 105.622 276.633 104.273 278.354 103.659C279.188 103.361 279.793 103.311 280.206 103.384C280.537 103.442 280.917 103.602 281.35 104.162C283.442 106.869 283.267 110.648 281.168 112.443C279.999 113.442 279.861 115.201 280.86 116.372C281.859 117.542 283.616 117.68 284.785 116.681C285.457 116.106 286.027 115.475 286.502 114.803C286.713 114.808 286.928 114.788 287.143 114.743C291.8 113.752 295.577 113.226 299.397 114.639C300.301 114.973 300.923 115.359 301.231 115.691C301.361 115.832 301.385 115.91 301.389 115.925L301.389 115.925C301.391 115.93 301.415 116.002 301.362 116.202C301.28 116.508 301.031 116.902 300.283 117.381C299.515 117.874 298.543 118.253 297.443 118.654C296.915 118.847 296.416 119.044 295.928 119.237L295.928 119.237L295.928 119.237L295.928 119.237C294.966 119.617 294.045 119.981 293.022 120.262C292.515 120.402 292.086 120.487 291.726 120.532C291.251 120.363 290.752 120.331 290.28 120.421C288.904 119.746 287.24 120.311 286.56 121.687C285.878 123.066 286.443 124.738 287.821 125.421C288.66 125.836 289.532 126.044 290.39 126.116C291.333 126.669 292.483 127.441 293.326 128.288C293.896 128.86 294.135 129.279 294.205 129.501C294.208 129.51 294.211 129.517 294.213 129.523L294.217 129.536L294.217 129.536C294.22 129.542 294.222 129.548 294.223 129.552C294.225 129.559 294.226 129.564 294.225 129.569C294.224 129.578 294.218 129.587 294.205 129.607L294.193 129.623L294.182 129.64C293.744 130.302 292.669 130.824 290.17 130.246C287.843 129.707 285.431 128.413 284.19 127.457C282.972 126.518 281.224 126.746 280.286 127.965C279.782 128.621 279.615 129.43 279.757 130.184C279.773 130.671 279.917 131.161 280.201 131.601C281.008 132.85 281.076 134.983 280.165 136.817C279.304 138.549 277.987 139.292 276.475 138.999C275.711 138.851 275.01 138.365 274.351 137.234C273.662 136.053 273.156 134.374 272.842 132.362C272.286 128.807 272.419 124.844 272.636 122.34C272.753 121.661 272.868 120.982 272.984 120.304C273.241 118.786 272.221 117.347 270.705 117.089C269.19 116.831 267.752 117.851 267.494 119.368L267.364 120.132C267.275 120.358 267.215 120.6 267.187 120.853C267.161 121.088 267.136 121.344 267.11 121.618C265.382 131.694 263.525 141.68 260.697 151.346C259.587 155.138 258.302 159.081 256.434 162.516C254.574 165.937 252.239 168.66 249.129 170.235C242.124 173.783 236.317 172.901 231.157 169.816C225.787 166.607 221.076 160.966 216.843 154.91C215.961 153.649 214.225 153.341 212.966 154.223C211.706 155.106 211.399 156.843 212.281 158.104C216.588 164.266 221.86 170.75 228.302 174.601C234.954 178.577 242.788 179.694 251.644 175.208C256.106 172.947 259.145 169.189 261.325 165.181C263.497 161.186 264.917 156.751 266.04 152.913C267.316 148.553 268.398 144.14 269.356 139.712C269.416 139.823 269.478 139.933 269.542 140.042C270.755 142.123 272.641 143.932 275.418 144.47C280.091 145.375 283.531 142.558 285.15 139.299C285.808 137.977 286.237 136.455 286.359 134.892C287.191 135.206 288.052 135.475 288.918 135.676C291.931 136.372 296.338 136.476 298.824 132.717C299.886 131.113 300.007 129.373 299.511 127.813C299.101 126.522 298.304 125.443 297.512 124.604C297.799 124.493 298.071 124.386 298.324 124.286L298.325 124.286C298.724 124.129 299.074 123.991 299.351 123.89C300.405 123.506 301.932 122.943 303.287 122.074C304.664 121.192 306.164 119.803 306.741 117.641C307.366 115.298 306.616 113.311 305.317 111.906C304.145 110.638 302.575 109.873 301.325 109.411C296.789 107.734 292.433 108.073 288.397 108.809C288.451 105.885 287.446 102.943 285.754 100.753Z" fill="black"/>
<path fill-rule="evenodd" clip-rule="evenodd" d="M28.0712 185.03C28.2778 184.772 28.4219 184.671 28.4808 184.636C28.5104 184.618 28.5264 184.613 28.53 184.612C28.5335 184.61 28.536 184.61 28.5412 184.609C28.5648 184.607 28.8044 184.6 29.3502 184.91C30.2821 185.439 31.1464 186.28 32.1202 187.227L32.1202 187.227C32.4293 187.527 32.7495 187.839 33.0863 188.154C34.209 189.206 35.9707 189.148 37.0213 188.025C38.0719 186.901 38.0135 185.138 36.8909 184.086C36.7325 183.938 36.5405 183.749 36.3205 183.533L36.3203 183.533C35.3162 182.547 33.7295 180.989 32.0963 180.062C31.0326 179.458 29.6163 178.907 28.0081 179.062C26.2974 179.226 24.8518 180.138 23.726 181.545C21.1425 184.771 20.459 188.148 21.1114 191.458C21.4897 193.378 22.3023 195.195 23.2958 196.884C22.0599 198.129 20.7046 199.829 19.8819 201.772C18.9239 204.034 18.5711 206.995 20.5236 209.701C22.6327 212.625 25.8407 213.31 28.4678 213.371C28.9716 213.382 29.4902 213.37 30.0099 213.342C29.603 214.429 29.3159 215.594 29.217 216.84C29.116 218.112 29.2124 219.693 29.6259 221.2C30.0251 222.655 30.8344 224.447 32.4788 225.599C34.2621 226.849 36.2067 226.847 37.8485 226.235C39.3474 225.676 40.6175 224.618 41.5908 223.627C42.6929 222.506 43.669 221.203 44.4232 220.094C45.5432 221.453 46.8072 222.495 48.238 223.099C50.0574 223.868 51.9083 223.823 53.596 223.171C56.723 221.963 59.0666 218.786 60.6585 215.545C61.9294 212.957 62.6167 210.329 62.7976 207.708C65.7878 211.441 69.1389 215.292 72.8473 218.421C79.0519 223.655 86.7241 227.268 95.8892 224.853C104.022 222.71 108.605 215.397 111.337 208.044C114.027 200.804 115.235 192.687 116.059 187.15L116.059 187.15L116.13 186.676C116.356 185.154 115.308 183.736 113.787 183.508C112.266 183.281 110.849 184.331 110.622 185.853L110.576 186.165C109.738 191.79 108.602 199.416 106.118 206.1C103.554 213.003 99.8728 218.041 94.4708 219.464C87.7461 221.236 81.9055 218.775 76.4353 214.16C71.6787 210.147 67.5561 204.809 63.7194 199.841L63.7184 199.84L63.7182 199.84C63.0742 199.006 62.4382 198.182 61.8086 197.377C61.4781 196.954 61.0501 196.653 60.5815 196.48C59.8576 195.353 58.4044 194.883 57.1354 195.432C55.7243 196.043 55.0754 197.683 55.686 199.096C57.743 203.854 57.8828 208.562 55.6614 213.085C54.2345 215.991 52.6956 217.545 51.5901 217.972C51.1615 218.137 50.8086 218.137 50.401 217.965C49.9192 217.761 49.166 217.226 48.2467 215.929C47.6066 215.026 46.5275 214.619 45.5054 214.794C45.3125 214.561 45.0783 214.357 44.8055 214.191C43.4903 213.394 41.7785 213.815 40.9821 215.131C40.3462 216.182 39.0777 218.237 37.6208 219.719C36.881 220.472 36.2902 220.869 35.9043 221.013C35.7057 221.087 35.6933 221.066 35.6814 221.046C35.68 221.044 35.6786 221.041 35.6769 221.039L35.6748 221.037C35.6738 221.036 35.6727 221.035 35.6715 221.034C35.544 220.944 35.2335 220.594 34.9951 219.725C34.771 218.908 34.7119 217.982 34.7675 217.283C34.9749 214.671 36.6405 212.498 38.9358 209.632C39.8972 208.431 39.7039 206.677 38.5039 205.715C37.304 204.752 35.5519 204.945 34.5905 206.146C34.512 206.244 34.4322 206.344 34.3512 206.444L34.3461 206.451L34.3457 206.451L34.3457 206.451C34.1204 206.732 33.8863 207.024 33.6477 207.326C33.3635 207.364 33.0836 207.403 32.8071 207.441L32.807 207.441C31.3544 207.643 29.9954 207.831 28.5943 207.799C26.6936 207.755 25.6499 207.288 25.0376 206.44C24.6088 205.845 24.5144 205.114 25.0084 203.948C25.441 202.926 26.227 201.872 27.0792 200.984C27.7998 201.107 28.5673 200.947 29.2016 200.478C30.438 199.563 30.6995 197.819 29.7855 196.581C28.0832 194.275 26.9417 192.246 26.5741 190.381C26.2442 188.707 26.4984 186.995 28.0712 185.03Z" fill="black"/>
</g>
</svg>
