<svg width="60" height="60" viewBox="0 0 60 60" fill="none" xmlns="http://www.w3.org/2000/svg">
<g id="icons8-idea 1">
<g id="Group">
<g id="Group_2">
<path id="Vector" d="M42.5322 9.92659C41.4546 8.68699 40.149 7.71019 38.7306 6.94579C38.001 6.24259 37.1574 5.65099 36.2394 5.21059C33.5718 3.93139 30.531 3.86179 27.6522 4.27939C24.6786 4.71019 21.9354 5.69899 19.7766 7.85419C17.9034 9.72259 16.4886 12.0626 15.4854 14.4986C13.4922 19.3406 13.2006 24.8222 14.391 29.9018C14.9898 32.4578 15.9762 34.9358 17.325 37.1882C17.8122 38.0006 18.3702 38.7302 18.9642 39.419C18.5394 40.031 18.3306 40.7846 18.4914 41.7014C18.9234 44.165 21.1518 45.2174 23.2014 46.193C22.353 46.9886 21.885 48.179 21.9594 49.3514C22.0722 51.1298 23.3706 52.3094 24.9822 52.8638C25.1706 52.9286 25.3734 52.961 25.5666 53.015C25.929 53.7242 26.4042 54.3806 26.937 54.9494C27.735 55.7978 28.8186 56.513 30.0126 56.4614C31.011 56.6054 32.0418 56.1914 32.7954 55.5386C33.5754 54.863 34.095 53.903 34.4718 52.937C35.1774 52.6922 35.8422 52.349 36.405 51.8462C38.0406 50.3834 37.7814 48.3302 37.0914 46.4906C38.3898 45.599 39.621 43.4486 39.7038 43.2506C40.3098 41.7854 39.8526 40.1882 38.8962 38.9954C42.2178 35.3966 44.697 30.9566 45.8214 26.1902C47.1402 20.5946 46.4058 14.3846 42.5322 9.92659Z" fill="#FBE151"/>
<path id="Vector_2" d="M36.7923 45.2606C37.5879 44.3378 38.2635 43.1654 38.1711 41.9006C38.1111 41.0882 37.8147 40.3046 37.1871 39.7586C36.6687 39.3086 36.0579 39.047 35.4015 38.8622C35.2971 38.8322 35.1879 38.813 35.0811 38.7866C33.3387 38.1482 31.2003 38.171 29.5407 38.111C27.6099 38.0414 25.6719 38.0258 23.7519 38.2718C22.9635 38.3726 21.8115 38.4866 21.0915 39.0218C21.0867 39.0242 21.0807 39.0254 21.0759 39.029C21.0699 39.0326 21.0675 39.0374 21.0615 39.041C21.0399 39.0578 21.0219 39.0758 21.0015 39.0926C20.5455 39.3974 20.2011 39.7934 19.9863 40.3022C19.7451 40.8734 19.7115 41.4518 19.8375 42.0602C20.0247 42.965 20.6499 43.6442 21.3711 44.1686C21.8991 44.5514 22.5639 44.7674 23.1927 44.9174C23.4651 44.9822 23.7387 45.0458 24.0147 45.089C24.0339 45.0926 24.0483 45.0914 24.0675 45.0938C23.9679 45.5618 23.8935 46.031 23.8467 46.5014C23.6151 46.835 23.4183 47.1902 23.3031 47.5862C23.0799 48.3542 23.1531 49.2554 23.5947 49.937C24.0267 50.603 24.6711 51.0986 25.4451 51.299C25.5687 51.3314 25.6911 51.3362 25.8147 51.353C25.8615 51.4226 25.9023 51.4934 25.9539 51.563C26.4831 52.2878 27.0843 52.9946 27.8991 53.411C28.3419 53.6378 28.8279 53.8022 29.3247 53.8718C29.6595 53.9822 30.0063 54.0554 30.3579 54.059C31.5855 54.0698 32.5971 53.4182 33.2799 52.4894C33.8103 52.3046 34.3011 52.0094 34.7343 51.6398C34.9551 51.4514 35.1495 51.2318 35.3355 51.0098C35.5875 50.7074 35.8479 50.3978 36.0447 50.0558C36.5007 49.2638 36.6867 48.2702 36.3831 47.3882C36.2343 46.9562 36.0183 46.5758 35.7651 46.2182C36.1359 45.9242 36.4875 45.6122 36.7923 45.2606Z" fill="white"/>
<path id="Vector_3" d="M25.5816 44.1994C28.332 44.4694 31.0968 44.5198 33.8544 44.3518C34.6212 44.305 34.6272 43.105 33.8544 43.1518C31.0968 43.321 28.3308 43.2694 25.5816 42.9994C24.8136 42.925 24.8196 44.125 25.5816 44.1994Z" fill="#231F20"/>
<path id="Vector_4" d="M26.6187 50.2779C28.9083 50.2443 31.1919 49.9995 33.4395 49.5567C34.1967 49.4079 33.8763 48.2511 33.1203 48.3999C30.9771 48.8223 28.8039 49.0467 26.6187 49.0791C25.8471 49.0887 25.8447 50.2887 26.6187 50.2779Z" fill="#231F20"/>
<path id="Vector_5" d="M35.261 26.9397C35.1686 26.8929 35.0714 26.8593 34.979 26.8161C35.1866 26.5689 35.3726 26.3097 35.5082 26.0205C36.4382 24.0345 34.2338 22.7841 32.6234 22.3929C30.3338 21.8373 27.899 21.7497 25.5806 22.1505C24.821 22.2813 25.1426 23.4381 25.8998 23.3073C27.3518 23.0565 28.8326 23.0493 30.2954 23.2125C31.5266 23.3493 33.425 23.4945 34.2734 24.5361C34.769 25.1445 34.5002 25.7661 33.8618 26.3373C32.5562 25.8537 31.1822 25.5633 29.7866 25.4925C28.1726 25.4109 26.4218 25.6281 25.1042 26.6397C24.521 27.0873 23.9738 27.7173 24.1394 28.5069C24.3158 29.3493 25.1114 29.7897 25.8926 29.9325C27.7322 30.2661 29.675 29.8389 31.3718 29.1225C32.2274 28.7613 33.2198 28.2981 34.0526 27.6801C35.027 28.0593 36.419 28.7157 36.3314 29.6769C36.2018 31.0869 33.7838 31.7661 32.681 32.0469C31.1906 32.4273 29.5562 32.6097 28.139 31.8837C27.7418 31.6821 27.2294 31.9269 27.2342 32.4021C27.2594 34.8777 27.731 37.3101 28.6526 39.6093C28.9358 40.3173 30.0974 40.0077 29.8094 39.2901C29.0378 37.3641 28.6034 35.3541 28.4858 33.2937C29.9054 33.7209 31.4186 33.5949 32.8766 33.2361C34.4774 32.8425 36.5786 32.1105 37.3346 30.4977C38.1122 28.8345 36.5882 27.6057 35.261 26.9397ZM28.4222 28.7445C27.7994 28.8417 27.1574 28.8621 26.5298 28.8081C26.2658 28.7853 25.6394 28.7433 25.4618 28.4961C25.3622 28.3581 25.4534 27.9693 25.5242 27.8553C25.625 27.6909 25.8542 27.5601 26.0138 27.4545C26.9954 26.7981 28.2398 26.6553 29.3918 26.6769C30.4826 26.6973 31.5626 26.8749 32.6078 27.1797C31.0586 28.0281 29.0414 28.6485 28.4222 28.7445Z" fill="#231F20"/>
<path id="Vector_6" d="M8.07724 41.2125C10.1592 40.1685 12.2424 39.1257 14.3244 38.0817C14.8872 37.7997 15.09 36.9609 14.7552 36.4401C14.3844 35.8653 13.7148 35.7081 13.1136 36.0093C11.0316 37.0533 8.94844 38.0961 6.86644 39.1401C6.30364 39.4221 6.10084 40.2609 6.43564 40.7817C6.80644 41.3577 7.47484 41.5137 8.07724 41.2125Z" fill="#C9C9C9"/>
<path id="Vector_7" d="M4.2936 20.0969C6.2952 20.6669 8.3892 20.9489 10.47 20.9309C11.0976 20.9249 11.6988 20.3825 11.67 19.7309C11.6412 19.0853 11.1432 18.5249 10.47 18.5309C9.9852 18.5357 9.5004 18.5249 9.0156 18.4949C8.7732 18.4805 8.532 18.4613 8.2908 18.4385C8.1612 18.4265 8.0304 18.4121 7.9008 18.3977C7.848 18.3917 7.5228 18.3497 7.776 18.3845C6.8148 18.2537 5.8644 18.0485 4.9308 17.7833C4.3272 17.6117 3.5976 17.9933 3.4548 18.6209C3.3108 19.2593 3.648 19.9133 4.2936 20.0969Z" fill="#C9C9C9"/>
<path id="Vector_8" d="M47.6395 13.2348C49.8511 11.5812 52.1239 10.5648 54.8011 10.0236C55.4179 9.89883 55.8295 9.13443 55.6387 8.54763C55.4275 7.89363 54.8227 7.57563 54.1627 7.71003C51.3763 8.27403 48.7051 9.46203 46.4275 11.1636C45.9259 11.538 45.6187 12.2184 45.9967 12.8052C46.3171 13.3008 47.1019 13.6368 47.6395 13.2348Z" fill="#C9C9C9"/>
<path id="Vector_9" d="M49.202 28.9268C48.8396 28.8788 49.2296 28.9328 49.3004 28.9448C49.3832 28.958 49.4672 28.9724 49.55 28.988C49.7432 29.024 49.9364 29.0636 50.1284 29.108C50.5256 29.2004 50.9192 29.312 51.3056 29.4428C51.4928 29.5052 51.6776 29.5736 51.8612 29.6444C51.9524 29.6804 52.0472 29.7128 52.1348 29.7548C51.8372 29.6108 52.1312 29.756 52.196 29.786C52.568 29.954 52.9304 30.1424 53.2844 30.3452C53.8292 30.6572 54.6212 30.4916 54.926 29.9144C55.2272 29.3432 55.0772 28.6052 54.4952 28.2728C52.8524 27.332 51.0716 26.774 49.2008 26.528C48.9188 26.4908 48.5432 26.6888 48.3524 26.8796C48.1448 27.0872 47.9876 27.4292 48.0008 27.728C48.0152 28.0388 48.1172 28.3604 48.3524 28.5764C48.6044 28.8068 48.8672 28.8836 49.202 28.9268Z" fill="#C9C9C9"/>
<path id="Vector_10" d="M5.46246 31.6578C6.44646 31.4058 7.43046 31.1538 8.41446 30.903C8.88366 30.783 9.35286 30.6582 9.82806 30.567C9.93606 30.5466 10.0465 30.5298 10.1545 30.5094C9.89646 30.5574 10.2421 30.4998 10.2733 30.4974C10.5301 30.4734 10.7857 30.4686 11.0437 30.4794C11.6713 30.5058 12.2713 29.9082 12.2437 29.2794C12.2137 28.6062 11.7169 28.1082 11.0437 28.0794C9.97326 28.0338 8.91846 28.2966 7.89006 28.5594C6.86766 28.821 5.84646 29.0826 4.82406 29.3442C4.21566 29.5002 3.78846 30.2118 3.98646 30.8202C4.18926 31.4478 4.81086 31.8246 5.46246 31.6578Z" fill="#FBE151"/>
<path id="Vector_11" d="M6.29611 9.77662C8.34211 10.6406 10.2705 11.7566 12.0405 13.1006C12.5421 13.4822 13.4049 13.1966 13.6821 12.6698C14.0169 12.0374 13.7877 11.435 13.2513 11.0282C11.4825 9.68422 9.55291 8.56822 7.50691 7.70422C7.19731 7.57222 6.92251 7.48942 6.58291 7.58302C6.30451 7.65982 6.00331 7.87462 5.86531 8.13502C5.59411 8.64742 5.67811 9.51502 6.29611 9.77662Z" fill="#FBE151"/>
<path id="Vector_12" d="M50.427 22.7213C50.6166 22.6901 50.805 22.6613 50.9946 22.6361C50.8878 22.6505 50.7822 22.6649 50.6754 22.6793C51.8982 22.5185 53.1318 22.4849 54.3606 22.5773C54.9882 22.6253 55.5882 21.9917 55.5606 21.3773C55.5294 20.6861 55.0326 20.2277 54.3606 20.1773C52.8282 20.0621 51.303 20.1581 49.7886 20.4077C49.5102 20.4533 49.2078 20.7257 49.071 20.9597C48.921 21.2165 48.8562 21.5957 48.9498 21.8849C49.1682 22.5557 49.761 22.8317 50.427 22.7213Z" fill="#FBE151"/>
<path id="Vector_13" d="M44.7816 34.2492C45.588 34.602 46.3619 35.022 47.0951 35.5092C47.2751 35.6292 47.4528 35.7528 47.628 35.8812C47.7096 35.9412 47.7888 36.0084 47.8728 36.0636C47.8236 36.0312 47.6879 35.9184 47.8115 36.0168C47.8619 36.0564 47.9112 36.096 47.9604 36.1356C48.3072 36.4164 48.6408 36.7128 48.9612 37.0224C49.4136 37.4592 50.214 37.506 50.658 37.0224C51.0912 36.5508 51.1404 35.7912 50.658 35.3256C49.302 34.0164 47.7192 32.9328 45.9924 32.1768C45.6864 32.0424 45.4044 31.9632 45.0672 32.0556C44.7888 32.1324 44.4876 32.3472 44.3496 32.6076C44.076 33.126 44.1672 33.9804 44.7816 34.2492Z" fill="#FBE151"/>
<path id="Vector_14" d="M53.0259 40.1344C54.5703 40.1344 54.5727 37.7344 53.0259 37.7344C51.4827 37.7344 51.4791 40.1344 53.0259 40.1344Z" fill="#FBE151"/>
<path id="Vector_15" d="M2.18818 6.76707C2.18818 6.81867 2.18818 6.86907 2.18818 6.92067C2.18218 7.08627 2.21578 7.23987 2.29138 7.38267C2.33938 7.53147 2.42218 7.65987 2.53978 7.76907C2.64778 7.88667 2.77738 7.96947 2.92618 8.01747C3.06898 8.09187 3.22258 8.12667 3.38818 8.12067C3.49378 8.10627 3.60058 8.09187 3.70738 8.07747C3.91018 8.01987 4.08658 7.91787 4.23658 7.76907C4.29898 7.68867 4.36138 7.60707 4.42378 7.52667C4.53178 7.33947 4.58698 7.13787 4.58818 6.92067C4.58818 6.86907 4.58818 6.81867 4.58818 6.76707C4.59418 6.60147 4.55938 6.44787 4.48498 6.30507C4.43698 6.15627 4.35418 6.02787 4.23658 5.91867C4.12738 5.80227 3.99898 5.71947 3.85018 5.67027C3.70738 5.59587 3.55258 5.56107 3.38818 5.56707C3.28138 5.58147 3.17578 5.59587 3.06898 5.61027C2.86618 5.66787 2.68858 5.76987 2.53978 5.91867C2.47738 6.00027 2.41378 6.08067 2.35138 6.16227C2.24338 6.34947 2.18818 6.55107 2.18818 6.76707Z" fill="#FBE151"/>
</g>
</g>
</g>
</svg>
