<svg width="119" height="61" viewBox="0 0 119 61" fill="none" xmlns="http://www.w3.org/2000/svg">
<path fill-rule="evenodd" clip-rule="evenodd" d="M29.3005 9.5563C28.6024 9.93776 27.3314 11.5001 24.9439 14.9114C22.6976 18.1209 18.6121 24.4442 16.1245 28.5615L15.2018 30.0886L14.8531 29.6805C13.0508 27.5716 8.80109 21.8112 6.72752 18.6665C5.40731 16.6643 4.82914 16.1524 3.89388 16.1575C2.52742 16.1648 0.729258 17.8 0.719311 19.0442C0.712223 19.9253 1.48361 21.2144 4.30979 25.0448C5.16747 26.2074 6.12598 27.4943 6.4398 27.9046C6.75363 28.3149 7.39558 29.1542 7.86645 29.7696C8.65126 30.7955 11.4755 34.3614 11.858 34.8093C11.9953 34.97 11.9466 35.1167 11.5442 35.7531C9.72616 38.6284 6.61761 43.9984 4.57139 47.7985C2.56609 51.5224 0.130078 56.437 0.0329707 56.9543C-0.23796 58.3988 1.19664 59.8687 3.02041 60.0151C3.9711 60.0914 4.74012 59.7769 5.25587 59.1008C5.43827 58.8616 6.25952 57.3677 7.08076 55.781C9.73722 50.6488 13.3856 44.1742 15.5194 40.8057L15.8534 40.2783L18.1467 43.3546C19.408 45.0465 20.74 46.8504 21.1068 47.3633C22.5064 49.3206 22.7843 49.6404 23.2829 49.867C24.2513 50.3069 25.421 50.0573 26.3904 49.2039C27.4253 48.293 27.7112 47.2295 27.2007 46.1903C27.0642 45.9123 26.1589 44.6497 25.1891 43.3845C24.2192 42.1194 22.7248 40.1611 21.8683 39.0327C21.0116 37.9044 20.0164 36.5962 19.6566 36.1259C19.0869 35.381 19.0206 35.2366 19.1431 35.0068C19.7109 33.9413 24.0884 27.0928 26.5991 23.3422C27.9636 21.3037 30.7442 17.3336 32.1554 15.4087C33.9324 12.985 34.1529 12.4016 33.6827 11.3666C33.0191 9.90593 30.5371 8.88053 29.3005 9.5563ZM110.395 16.841C109.353 17.1333 108.549 17.6345 107.809 18.4516C106.56 19.8314 105.731 22.0006 105.574 24.2988C105.532 24.9143 105.42 25.5728 105.324 25.7621C104.971 26.4628 103.537 27.83 102.752 28.2147C100.798 29.1717 99.1323 28.9366 98.4468 27.607C98.1713 27.0729 98.0633 25.6162 98.1996 24.2733C98.5256 21.0608 99.5048 19.0254 100.827 18.8108C101.856 18.6438 102.494 20.1354 101.894 21.3049C101.706 21.6712 102.092 21.8744 102.976 21.8737C104.301 21.873 105.034 21.1624 105.035 19.8781C105.036 18.0227 103.539 16.7764 101.309 16.7764C98.2332 16.7764 95.8342 18.8894 94.9564 22.3716C94.7646 23.1328 94.6727 23.9677 94.6279 25.3557C94.5697 27.1619 94.5431 27.3298 94.2057 28.0289C93.7937 28.8821 93.6726 29.0469 93.1754 29.4306C92.8244 29.7015 92.1775 29.794 91.9053 29.6123C91.4231 29.2903 91.3749 28.3028 91.6822 25.0466C91.9309 22.4116 91.8783 20.8877 91.5146 20.1872C90.4034 18.0476 87.7436 17.9907 85.7009 20.0628L84.9549 20.8196L84.9973 20.0251C85.0388 19.2469 85.0337 19.232 84.7486 19.2986C84.5886 19.336 83.87 19.4923 83.152 19.6459C82.4339 19.7995 81.8075 19.9581 81.7599 19.9982C81.7123 20.0384 81.5222 22.0297 81.3375 24.4231L81.0018 28.7749L80.5691 29.6782C79.6087 31.6833 77.7187 33.1266 75.8757 33.2626C75.1259 33.3178 74.9403 33.2876 74.5106 33.0402C73.9043 32.6909 73.4716 31.8895 73.4246 31.0284L73.3915 30.4223L74.3862 30.1865C76.6948 29.6395 78.6371 28.2742 79.4467 26.6295C79.9556 25.5958 80.0857 23.9626 79.7328 23.0384C78.9302 20.9369 76.4861 20.4074 73.8141 21.7562C71.8535 22.746 70.5644 24.7131 69.9592 27.639C69.7436 28.6808 69.7085 29.1963 69.7564 30.6129C69.8129 32.2853 69.806 32.3441 69.4696 33.0556C69.0632 33.9148 68.3475 34.7492 67.9264 34.8549C67.0603 35.0722 66.6594 34.361 66.7833 32.8271C67.1008 28.8975 67.4833 23.1982 67.4328 23.1477C67.3822 23.0972 64.1447 23.8388 64.0314 23.9268C63.9875 23.961 63.5282 30.8451 63.4259 33.0024C63.3364 34.8921 63.475 35.754 64.0026 36.5858C64.4924 37.358 64.9747 37.5959 66.0556 37.598C66.7416 37.5993 67.0776 37.529 67.6413 37.266C68.5234 36.8547 69.5951 35.8589 70.1855 34.9026L70.6305 34.1816L71.0339 34.6528C71.2558 34.912 71.7371 35.2875 72.1035 35.487C72.6615 35.7911 72.9494 35.8588 73.8747 35.9032C76.177 36.014 78.1886 35.13 80.0225 33.2019L80.6854 32.505L80.5954 33.551C80.515 34.4835 80.527 34.5886 80.7055 34.52C80.8157 34.4778 81.5907 34.2986 82.4276 34.1219C83.2646 33.9451 83.959 33.7888 83.9709 33.7745C83.9827 33.7601 84.1407 31.8181 84.3221 29.4588C84.756 23.816 84.8027 23.4644 85.2259 22.6421C85.7275 21.6675 86.318 21.2267 87.1383 21.2144C87.6929 21.2059 87.8273 21.2524 88.0722 21.537C88.4927 22.0259 88.5394 22.6896 88.3214 25.0819C87.8918 29.7971 88.167 31.3708 89.5591 32.1591C90.2218 32.5345 91.4487 32.5451 92.4147 32.1836C93.2391 31.8753 94.3618 30.8834 94.8947 29.9928L95.2607 29.3813L96.0138 30.147C96.9915 31.1412 97.6585 31.3896 99.3158 31.3769C100.294 31.3695 100.681 31.3036 101.569 30.9934C102.89 30.5316 104.154 29.7056 105.118 28.6751L105.851 27.8918L106.282 28.6334C106.793 29.5111 107.622 30.2063 108.61 30.5857C109.609 30.9694 111.627 31.0576 112.742 30.7666C114.372 30.3407 115.799 29.4362 116.864 28.1533C117.496 27.3923 118.522 25.4701 118.657 24.7954C118.727 24.4419 118.699 24.4097 118.14 24.2024C117.815 24.0818 117.511 24.0263 117.465 24.0789C117.419 24.1314 117.285 24.4263 117.167 24.734C116.618 26.1656 115.14 27.7505 113.931 28.2026C111.963 28.9392 110.126 28.5519 109.505 27.2693C109.368 26.9871 109.223 26.3991 109.182 25.9627L109.108 25.1692L110.025 25.2087C111.736 25.2824 113.703 24.6626 114.804 23.702C115.083 23.4594 115.499 22.9069 115.73 22.4743C116.082 21.8131 116.157 21.5268 116.202 20.6775C116.302 18.7821 115.595 17.6621 113.863 16.9693C113.094 16.6617 111.274 16.5944 110.395 16.841ZM111.428 18.762C110.765 19.0303 110.127 20.1502 109.706 21.7827C109.183 23.8146 109.164 23.615 109.881 23.615C110.606 23.615 111.583 23.2744 112.194 22.8083C113.35 21.9266 113.744 19.4674 112.831 18.8284C112.543 18.6264 111.845 18.5934 111.428 18.762ZM75.0596 23.4008C74.2833 23.9241 73.5416 25.9189 73.3685 27.9502L73.2904 28.8662L73.5896 28.7785C74.9472 28.3809 76.0808 27.5424 76.5778 26.5683C76.8686 25.9982 77.0169 24.7736 76.882 24.0551C76.7091 23.1326 75.8926 22.8395 75.0596 23.4008ZM59.5149 24.9051C58.9923 25.0459 57.6691 25.8842 57.6584 26.0812C57.6559 26.1267 57.5113 26.3317 57.3371 26.5369L57.0202 26.9099L57.072 26.1949C57.1054 25.7342 57.076 25.4789 56.9892 25.4768C56.9153 25.475 56.1707 25.6285 55.3347 25.818L53.8147 26.1622L53.748 26.6603C53.7115 26.9344 53.5711 28.8885 53.4361 31.0028C53.1981 34.7314 53.1799 34.8697 52.8337 35.6033C52.1152 37.1253 50.9916 38.3163 49.6595 38.9681C48.8608 39.3587 47.7848 39.5475 47.1595 39.4065C46.2969 39.2119 45.637 38.2652 45.5688 37.124L45.54 36.6451L46.4726 36.4064C46.9855 36.2751 47.8807 35.936 48.462 35.6528C50.9038 34.4631 52.3613 32.0352 51.9465 29.848C51.7819 28.9798 51.5537 28.58 50.8896 27.9955C50.0525 27.2585 49.0016 27.0573 47.5666 27.3594C45.0536 27.8883 43.02 30.0884 42.2355 33.1267C41.9248 34.3304 41.7872 36.8138 41.9772 37.7894L42.1103 38.4732L41.6493 38.8805C41.2266 39.2541 39.8695 40.1518 39.7277 40.1518C39.6945 40.1518 39.8097 39.6342 39.9838 39.0016C40.2668 37.9735 40.3011 37.6143 40.3074 35.6135C40.3138 33.622 40.2853 33.2978 40.0495 32.6707C39.6895 31.7138 39.0984 30.8869 38.4838 30.4806C38.0206 30.1743 37.867 30.143 36.845 30.1464C35.4753 30.1509 34.8216 30.4218 33.804 31.4067L33.134 32.0552L33.2199 30.8087C33.3001 29.6443 33.291 29.5668 33.0817 29.6307C32.9585 29.6683 32.2142 29.8471 31.4278 30.0279C30.6414 30.2087 29.9589 30.3924 29.9113 30.4361C29.8636 30.4798 29.7381 31.8305 29.6321 33.4376C29.3382 37.8959 28.9627 43.3982 28.6961 47.1502C28.266 53.202 28.2485 53.7583 28.4901 53.6656C28.6054 53.6214 29.3903 53.4077 30.2345 53.1907L31.7695 52.7962L31.8496 51.6028C32.0813 48.1474 32.3137 45.003 32.3716 44.5366L32.4372 44.0101L32.7454 44.2121C33.2502 44.5429 34.2844 44.7279 35.0487 44.6242C36.1197 44.4788 37.0033 43.9913 37.9041 43.0487C38.5774 42.3443 38.8293 42.171 39.5229 41.9358C40.4014 41.6376 41.6157 40.9731 42.2364 40.4508L42.617 40.1305L43.2368 40.8086C44.1327 41.7889 44.8404 42.0745 46.3482 42.0643C47.3253 42.0577 47.7146 41.9919 48.601 41.6841C49.9393 41.2191 51.1873 40.398 52.1983 39.3171L52.9788 38.4828L52.9023 39.566C52.8603 40.1617 52.8371 40.6465 52.8509 40.6434C52.8646 40.6402 53.628 40.4545 54.5473 40.2308C56.2002 39.8285 56.219 39.82 56.2517 39.4595C56.2698 39.2589 56.4005 37.2765 56.542 35.054C56.8266 30.5824 56.9378 29.6832 57.314 28.8085C57.597 28.1509 58.235 27.5178 58.7434 27.3902C59.0084 27.3237 59.1326 27.3764 59.3753 27.6585C59.6785 28.0111 59.6936 28.2971 59.4545 29.1671C59.3642 29.4957 59.6872 29.6279 60.5571 29.6183C63.0754 29.5905 63.3865 25.548 60.9229 24.8638C60.3572 24.7066 60.238 24.7102 59.5149 24.9051ZM47.5472 29.3392C46.49 29.6523 45.7414 31.3859 45.528 34.0144C45.4275 35.2529 45.4238 35.2509 46.6923 34.6163C48.0934 33.9153 48.9011 32.814 49.0451 31.4078C49.1958 29.9372 48.548 29.0429 47.5472 29.3392ZM34.3331 32.8058C33.9517 33.0383 33.4585 33.6115 33.1889 34.1353C32.9742 34.5527 32.5266 41.1227 32.6911 41.4425C33.1215 42.2794 33.7849 42.5392 34.6289 42.2015C35.7735 41.7435 36.4907 40.1028 36.7708 37.3017C36.9126 35.8829 36.783 34.2837 36.4643 33.5209C36.088 32.6203 35.1522 32.3064 34.3331 32.8058Z" fill="#F9F9F9"/>
<path fill-rule="evenodd" clip-rule="evenodd" d="M62.5775 1.20845C62.4537 1.39395 62.6954 3.60309 62.8567 3.76075C63.0104 3.91098 63.3701 3.85741 63.4185 3.67716C63.4405 3.59527 63.4035 3.00368 63.3364 2.36246C63.2254 1.30255 63.1975 1.18983 63.0295 1.12133C62.781 1.02001 62.6918 1.03722 62.5775 1.20845ZM57.1139 3.75438C56.8735 3.87359 56.816 4.11151 56.9718 4.34321C57.1128 4.55286 58.5447 5.94123 58.6945 6.01339C58.8446 6.08577 59.2077 5.74331 59.1873 5.54848C59.1773 5.45293 58.8655 5.08505 58.4945 4.73115C58.1235 4.37726 57.7528 4.00559 57.6707 3.90522C57.4832 3.67593 57.3467 3.63889 57.1139 3.75438ZM68.3391 3.4473C67.8407 4.19127 67.7169 4.44556 67.741 4.67631C67.768 4.93357 67.8033 4.96692 68.0472 4.96536C68.2957 4.96377 68.381 4.87461 68.913 4.06035C69.6394 2.94856 69.6463 2.93347 69.5501 2.67028C69.4908 2.5078 69.4114 2.46268 69.2198 2.48273C69.0118 2.50451 68.8576 2.67343 68.3391 3.4473ZM62.1781 6.00706C60.2971 6.64728 58.8611 8.37009 58.5413 10.3703C58.426 11.0908 58.5413 12.3931 58.7819 13.0895C59.1789 14.2387 59.9358 15.1424 61.2198 16.0005C61.5814 16.2422 61.5891 16.2577 61.6549 16.8862C61.7428 17.7262 62.0652 18.0217 62.4183 17.5861C62.531 17.4469 62.5342 17.2907 62.4362 16.6922C62.3709 16.2933 62.2577 15.8704 62.1847 15.7522C62.1117 15.6341 61.8082 15.3983 61.5103 15.2282C60.2408 14.5035 59.444 13.2445 59.2833 11.7091C59.0415 9.39913 60.4958 7.26145 62.7311 6.64123C64.6875 6.09841 67.0391 6.99567 68.0577 8.67359C69.2947 10.7115 68.9519 13.2698 67.2538 14.6727C66.7955 15.0513 66.6389 15.5589 66.7254 16.3853C66.8011 17.1083 66.8999 17.2712 67.2412 17.2355C67.5285 17.2054 67.6068 16.9397 67.5338 16.2421C67.4745 15.6758 67.4865 15.6235 67.7337 15.369C68.8326 14.2367 69.3335 13.3095 69.5228 12.0566C69.652 11.2015 69.4107 9.5851 69.0463 8.8643C68.2421 7.27382 66.8218 6.16151 65.1638 5.82404C64.3645 5.66135 62.9366 5.7489 62.1781 6.00706ZM62.3105 7.43943C60.7973 8.13867 59.9766 9.34003 59.8384 11.0578C59.7597 12.0365 60.1403 13.1355 60.8284 13.9164C61.0191 14.1327 61.4733 14.5074 61.8378 14.749C62.6636 15.2965 62.8937 15.6574 62.9907 16.5577C63.0875 17.4561 63.1806 17.501 64.6234 17.3469C66.2042 17.178 66.305 17.0823 66.2011 15.8488C66.1427 15.1566 66.2943 14.754 66.7795 14.3132C67.3622 13.7839 67.8308 13.1117 68.0424 12.5021C68.2137 12.0084 68.2313 11.9233 68.2313 10.8665C68.113 9.73623 67.9896 9.68848 67.5801 9.04012C66.4643 7.27339 64.1747 6.57793 62.3105 7.43943ZM54.2008 8.81932C54.0287 8.94529 54.0396 9.31237 54.219 9.42971C54.3866 9.53923 56.3617 10.0495 56.5441 10.0304C56.8963 9.99355 56.9928 9.4266 56.6693 9.2947C56.4536 9.20677 54.4803 8.69025 54.4048 8.70191C54.3744 8.70665 54.2826 8.75944 54.2008 8.81932ZM71.7288 7.34502C70.7853 7.80788 70.5897 7.98553 70.7003 8.27932C70.8152 8.58473 71.1311 8.52687 72.2541 7.9949L73.3405 7.48029L73.3081 7.17064C73.2777 6.8798 73.2563 6.86209 72.9575 6.87974C72.7809 6.89009 72.2339 7.09728 71.7288 7.34502ZM55.7143 14.2763C54.675 14.7232 54.4406 14.9629 54.7614 15.2505C54.9995 15.4639 55.0607 15.4518 56.2313 14.9608C57.3803 14.4788 57.5388 14.3452 57.3479 14.0206C57.1759 13.7284 56.8814 13.7745 55.7143 14.2763ZM71.2589 12.5188C71.1415 12.8067 71.2855 13.0382 71.6238 13.1052C73.7802 13.5322 74.042 13.5374 74.056 13.1527C74.0642 12.9275 73.7911 12.6161 73.6028 12.6358C73.542 12.6422 73.0826 12.5668 72.5819 12.4683C71.5049 12.2563 71.3636 12.2617 71.2589 12.5188ZM61.7981 18.3161C61.723 18.4287 61.7248 18.5109 61.8046 18.6128C61.9526 18.8018 62.6646 18.791 64.804 18.567C67.0425 18.3327 67.6814 18.204 67.6999 17.9836C67.7351 17.5638 67.6365 17.5601 64.6852 17.869C62.2563 18.1233 61.8889 18.1802 61.7981 18.3161ZM62.0532 19.1216C61.8557 19.1963 61.795 19.5179 61.9498 19.6692C62.0523 19.7694 62.5322 19.7411 64.8486 19.4986C66.8871 19.2852 67.6505 19.1761 67.7219 19.088C67.8679 18.9079 67.8092 18.6583 67.6009 18.5733C67.4205 18.4998 62.3802 18.9979 62.0532 19.1216ZM63.3013 20.0755C63.28 20.1551 63.303 20.4343 63.3525 20.6961C63.4591 21.2591 63.7515 21.6311 64.2162 21.7949C64.6512 21.9481 65.7438 21.8339 66.1372 21.5941C66.5014 21.3721 66.8255 20.9055 66.8581 20.5562C66.8816 20.3051 66.9068 20.2894 67.366 20.2414C67.7511 20.201 67.8645 20.1532 67.9246 20.006C68.022 19.7669 68.0193 19.755 67.8335 19.6043C67.6001 19.4151 63.3602 19.8559 63.3013 20.0755ZM64.0366 20.6448C64.0098 20.6778 64.0416 20.7958 64.1071 20.9073C64.4211 21.4409 65.916 21.2515 66.1625 20.6468C66.2038 20.5457 66.235 20.44 66.2321 20.4118C66.2249 20.343 64.0982 20.5686 64.0366 20.6448Z" fill="#F5FA57"/>
</svg>
