<svg width="48" height="49" viewBox="0 0 48 49" fill="none" xmlns="http://www.w3.org/2000/svg">
<g clip-path="url(#clip0_2308_9982)">
<path d="M24 4.84531C30.4125 4.84531 31.1719 4.87344 33.6938 4.98594C36.0375 5.08906 37.3031 5.48281 38.1469 5.81094C39.2625 6.24219 40.0688 6.76719 40.9031 7.60156C41.7469 8.44531 42.2625 9.24219 42.6938 10.3578C43.0219 11.2016 43.4156 12.4766 43.5188 14.8109C43.6313 17.3422 43.6594 18.1016 43.6594 24.5047C43.6594 30.9172 43.6313 31.6766 43.5188 34.1984C43.4156 36.5422 43.0219 37.8078 42.6938 38.6516C42.2625 39.7672 41.7375 40.5734 40.9031 41.4078C40.0594 42.2516 39.2625 42.7672 38.1469 43.1984C37.3031 43.5266 36.0281 43.9203 33.6938 44.0234C31.1625 44.1359 30.4031 44.1641 24 44.1641C17.5875 44.1641 16.8281 44.1359 14.3063 44.0234C11.9625 43.9203 10.6969 43.5266 9.85313 43.1984C8.7375 42.7672 7.93125 42.2422 7.09688 41.4078C6.25313 40.5641 5.7375 39.7672 5.30625 38.6516C4.97813 37.8078 4.58438 36.5328 4.48125 34.1984C4.36875 31.6672 4.34063 30.9078 4.34063 24.5047C4.34063 18.0922 4.36875 17.3328 4.48125 14.8109C4.58438 12.4672 4.97813 11.2016 5.30625 10.3578C5.7375 9.24219 6.2625 8.43594 7.09688 7.60156C7.94063 6.75781 8.7375 6.24219 9.85313 5.81094C10.6969 5.48281 11.9719 5.08906 14.3063 4.98594C16.8281 4.87344 17.5875 4.84531 24 4.84531ZM24 0.523438C17.4844 0.523438 16.6688 0.551562 14.1094 0.664062C11.5594 0.776563 9.80625 1.18906 8.2875 1.77969C6.70312 2.39844 5.3625 3.21406 4.03125 4.55469C2.69063 5.88594 1.875 7.22656 1.25625 8.80156C0.665625 10.3297 0.253125 12.0734 0.140625 14.6234C0.028125 17.1922 0 18.0078 0 24.5234C0 31.0391 0.028125 31.8547 0.140625 34.4141C0.253125 36.9641 0.665625 38.7172 1.25625 40.2359C1.875 41.8203 2.69063 43.1609 4.03125 44.4922C5.3625 45.8234 6.70313 46.6484 8.27813 47.2578C9.80625 47.8484 11.55 48.2609 14.1 48.3734C16.6594 48.4859 17.475 48.5141 23.9906 48.5141C30.5063 48.5141 31.3219 48.4859 33.8813 48.3734C36.4313 48.2609 38.1844 47.8484 39.7031 47.2578C41.2781 46.6484 42.6188 45.8234 43.95 44.4922C45.2812 43.1609 46.1063 41.8203 46.7156 40.2453C47.3063 38.7172 47.7188 36.9734 47.8313 34.4234C47.9438 31.8641 47.9719 31.0484 47.9719 24.5328C47.9719 18.0172 47.9438 17.2016 47.8313 14.6422C47.7188 12.0922 47.3063 10.3391 46.7156 8.82031C46.125 7.22656 45.3094 5.88594 43.9688 4.55469C42.6375 3.22344 41.2969 2.39844 39.7219 1.78906C38.1938 1.19844 36.45 0.785938 33.9 0.673438C31.3313 0.551563 30.5156 0.523438 24 0.523438Z" fill="#C9C9C9"/>
<path d="M24 12.1953C17.1938 12.1953 11.6719 17.7172 11.6719 24.5234C11.6719 31.3297 17.1938 36.8516 24 36.8516C30.8062 36.8516 36.3281 31.3297 36.3281 24.5234C36.3281 17.7172 30.8062 12.1953 24 12.1953ZM24 32.5203C19.5844 32.5203 16.0031 28.9391 16.0031 24.5234C16.0031 20.1078 19.5844 16.5266 24 16.5266C28.4156 16.5266 31.9969 20.1078 31.9969 24.5234C31.9969 28.9391 28.4156 32.5203 24 32.5203Z" fill="#C9C9C9"/>
<path d="M39.6937 11.7063C39.6937 13.3 38.4 14.5844 36.8156 14.5844C35.2219 14.5844 33.9375 13.2906 33.9375 11.7063C33.9375 10.1125 35.2313 8.82812 36.8156 8.82812C38.4 8.82812 39.6937 10.1219 39.6937 11.7063Z" fill="#C9C9C9"/>
</g>
<defs>
<clipPath id="clip0_2308_9982">
<rect width="48" height="48" fill="white" transform="translate(0 0.523438)"/>
</clipPath>
</defs>
</svg>
